<svg width="36" height="36" viewBox="0 0 36 36" fill="none" xmlns="http://www.w3.org/2000/svg">
<path d="M28.5 33H7.5C6.30653 33 5.16193 32.5259 4.31802 31.682C3.47411 30.8381 3 29.6935 3 28.5V4.5C3 4.10218 3.15804 3.72064 3.43934 3.43934C3.72064 3.15804 4.10218 3 4.5 3H25.5C25.8978 3 26.2794 3.15804 26.5607 3.43934C26.842 3.72064 27 4.10218 27 4.5V15H33V28.5C33 29.6935 32.5259 30.8381 31.682 31.682C30.8381 32.5259 29.6935 33 28.5 33ZM27 18V28.5C27 28.8978 27.158 29.2794 27.4393 29.5607C27.7206 29.842 28.1022 30 28.5 30C28.8978 30 29.2794 29.842 29.5607 29.5607C29.842 29.2794 30 28.8978 30 28.5V18H27ZM7.5 9V18H16.5V9H7.5ZM7.5 19.5V22.5H22.5V19.5H7.5ZM7.5 24V27H22.5V24H7.5ZM10.5 12H13.5V15H10.5V12Z" fill="url(#paint0_linear_700_463)"/>
<path d="M28.5 33H7.5C6.30653 33 5.16193 32.5259 4.31802 31.682C3.47411 30.8381 3 29.6935 3 28.5V4.5C3 4.10218 3.15804 3.72064 3.43934 3.43934C3.72064 3.15804 4.10218 3 4.5 3H25.5C25.8978 3 26.2794 3.15804 26.5607 3.43934C26.842 3.72064 27 4.10218 27 4.5V15H33V28.5C33 29.6935 32.5259 30.8381 31.682 31.682C30.8381 32.5259 29.6935 33 28.5 33ZM27 18V28.5C27 28.8978 27.158 29.2794 27.4393 29.5607C27.7206 29.842 28.1022 30 28.5 30C28.8978 30 29.2794 29.842 29.5607 29.5607C29.842 29.2794 30 28.8978 30 28.5V18H27ZM7.5 9V18H16.5V9H7.5ZM7.5 19.5V22.5H22.5V19.5H7.5ZM7.5 24V27H22.5V24H7.5ZM10.5 12H13.5V15H10.5V12Z" fill="black" fill-opacity="0.2"/>
<path d="M28.5 33H7.5C6.30653 33 5.16193 32.5259 4.31802 31.682C3.47411 30.8381 3 29.6935 3 28.5V4.5C3 4.10218 3.15804 3.72064 3.43934 3.43934C3.72064 3.15804 4.10218 3 4.5 3H25.5C25.8978 3 26.2794 3.15804 26.5607 3.43934C26.842 3.72064 27 4.10218 27 4.5V15H33V28.5C33 29.6935 32.5259 30.8381 31.682 31.682C30.8381 32.5259 29.6935 33 28.5 33ZM27 18V28.5C27 28.8978 27.158 29.2794 27.4393 29.5607C27.7206 29.842 28.1022 30 28.5 30C28.8978 30 29.2794 29.842 29.5607 29.5607C29.842 29.2794 30 28.8978 30 28.5V18H27ZM7.5 9V18H16.5V9H7.5ZM7.5 19.5V22.5H22.5V19.5H7.5ZM7.5 24V27H22.5V24H7.5ZM10.5 12H13.5V15H10.5V12Z" fill="black" fill-opacity="0.2"/>
<defs>
<linearGradient id="paint0_linear_700_463" x1="3" y1="18" x2="33" y2="18" gradientUnits="userSpaceOnUse">
<stop stop-color="#A03D8C"/>
<stop offset="1" stop-color="#4C2CCA"/>
</linearGradient>
</defs>
</svg>
