<svg width="32" height="33" viewBox="0 0 32 33" fill="none" xmlns="http://www.w3.org/2000/svg">
<path d="M20.0902 2.81402C20.6232 0.950058 22.5739 -0.133116 24.4378 0.399877C26.3018 0.932871 27.385 2.88357 26.852 4.74753C26.319 6.6115 24.3683 7.69467 22.5043 7.16168C20.6403 6.62869 19.5564 4.68062 20.0902 2.81402ZM22.0567 3.37634C21.8334 4.15715 22.2858 4.97191 23.0666 5.19518C23.8474 5.41846 24.6622 4.96604 24.8855 4.18522C25.1087 3.40441 24.6563 2.58964 23.8755 2.36637C23.0947 2.1431 22.2792 2.59815 22.0567 3.37634Z" fill="#A293FF"/>
<path d="M26.8689 2.89811C26.8689 2.89811 26.8481 3.53774 26.0634 3.66603C25.2796 3.79168 24.8905 3.42164 24.8905 3.42164C24.9539 3.66729 24.9591 3.92758 24.8847 4.18785C24.6614 4.96867 23.8467 5.42108 23.0659 5.19781C22.2851 4.97454 21.8326 4.15978 22.0559 3.37896C22.0785 3.30009 22.1818 3.00828 22.3787 2.79724C21.0468 3.0193 20.2916 2.28861 20.2916 2.28861C20.2123 2.45648 20.142 2.63262 20.0894 2.81665C19.5564 4.68062 20.6396 6.63132 22.5036 7.16431C24.3675 7.6973 26.3182 6.61413 26.852 4.74753C27.0309 4.12183 27.025 3.48595 26.8689 2.89811Z" fill="#5B2EAE"/>
<path d="M2.88338 20.3612C5.16314 19.1218 6.44097 18.8501 7.61785 16.4451C8.79473 14.04 9.95874 8.59677 12.9514 5.67002C15.6863 2.98811 19.404 2.61782 22.6613 3.54924C22.7402 3.57179 22.8176 3.5996 22.8964 3.62215C22.9761 3.64208 23.0557 3.662 23.1345 3.68455C26.3919 4.61598 29.3518 6.89572 30.2562 10.6154C31.2458 14.6837 29.3588 19.9202 29.0871 22.5813C28.8146 25.2449 29.7556 26.1511 31.0355 28.4083C31.5874 29.3823 32.1719 30.8492 31.9536 31.6228C31.7352 32.3965 31.2604 32.5651 30.2091 32.691C27.2343 33.0491 23.3754 33.1174 15.1361 30.7614C6.89677 28.4054 3.65734 26.3074 1.32154 24.4308C0.495746 23.768 0.181082 23.3766 0.405478 22.6018C0.628371 21.8323 1.89996 20.8962 2.88338 20.3612Z" fill="#FDEEFF"/>
<path d="M29.2299 30.9037C29.5629 29.7391 23.9833 27.1226 16.7666 25.0591C9.55001 22.9955 3.4306 22.2667 3.09757 23.4313C2.76454 24.596 8.2164 27.6594 15.433 29.7229C22.6496 31.7865 28.8969 32.0684 29.2299 30.9037Z" fill="#6846BA"/>
<path d="M28.7891 12.6929C28.7804 13.0914 28.7559 13.4854 28.7178 13.867C28.521 15.8186 27.9163 17.7047 27.5286 19.6273C27.0116 22.2011 27.0797 23.6539 27.7588 25.1279C27.8485 25.3214 27.6434 25.5215 27.45 25.4321C26.1502 24.8357 25.1185 24.3161 24.1096 23.1402C22.603 21.387 22.8034 18.9558 23.3811 16.8857C24.2396 13.8037 25.1492 10.8416 25.228 9.64119C25.3391 7.96944 25.2635 7.04058 24.9669 6.12819C24.5146 4.73614 27.1038 7.2284 27.4793 7.72539C28.5243 9.11344 28.8263 10.9517 28.7891 12.6929Z" fill="#A293FF"/>
<path d="M11.072 12.0435C11.6103 10.0417 12.2154 7.98503 13.5326 6.38228C14.3212 5.42468 15.4102 4.66959 16.6159 4.35172C17.5633 4.10215 19.3609 4.04169 19.6404 5.30187C19.6963 5.55391 19.6707 5.82245 19.6072 6.07446C19.3794 6.95068 18.6972 7.62585 18.0431 8.2522C16.1069 10.1102 14.8921 12.3992 13.4993 14.6743C12.9263 15.6139 12.2778 16.5291 11.4187 17.2162C10.8289 17.6875 7.88508 19.1209 8.96491 17.3735C10.0057 15.6831 10.5537 13.9657 11.072 12.0435Z" fill="#FFF9FF"/>
<path d="M18.6708 27.4408C18.7974 26.9878 18.6274 26.6576 18.1204 26.3022C17.0681 25.5662 15.5854 25.2218 14.6028 25.4357C13.5721 25.6586 13.434 28.4887 15.6082 29.1104C17.7824 29.7321 18.5749 27.7859 18.6708 27.4408Z" fill="#A293FF"/>
<path d="M9.3267 20.4944C6.90266 20.2392 4.98028 20.6365 4.05433 21.1396C3.32108 21.5357 3.19479 21.9774 4.33588 21.806C5.1949 21.6762 7.83083 21.6678 10.0238 22.0645C13.7913 22.7436 16.0545 23.3823 16.4282 23.4976C17.3036 23.7679 17.5712 23.1107 15.8598 22.3625C14.1476 21.6169 11.75 20.7522 9.3267 20.4944ZM14.8241 28.3316C15.0689 28.6291 15.4445 28.8474 15.8268 28.8032C16.2092 28.7589 16.5541 28.3883 16.4798 28.0116C16.4509 27.8639 16.3657 27.7343 16.2782 27.6126C16.0353 27.2787 15.7454 26.9796 15.4194 26.7272C15.2913 26.628 15.1539 26.5318 14.9931 26.4972C14.8358 26.4608 14.6495 26.4956 14.5477 26.6229C14.1182 27.14 14.4644 27.8988 14.8241 28.3316Z" fill="#FFF9FF"/>
</svg>
