<svg width="24" height="24" viewBox="0 0 24 24" fill="none" xmlns="http://www.w3.org/2000/svg">
<path fill-rule="evenodd" clip-rule="evenodd" d="M3.3749 10.4583C8.74359 8.34117 12.3236 6.94542 14.1148 6.27106C19.2292 4.34563 20.2919 4.01116 20.9846 4.00012C21.1369 3.99769 21.4776 4.03186 21.6982 4.19392C21.8845 4.33075 21.9358 4.5156 21.9603 4.64534C21.9848 4.77507 22.0154 5.07061 21.9911 5.30154C21.714 7.93731 20.5147 14.3336 19.9046 17.2857C19.6465 18.5349 19.1382 18.9537 18.6461 18.9947C17.5766 19.0838 16.7645 18.355 15.7287 17.7404C14.1078 16.7787 13.1921 16.18 11.6188 15.2416C9.80053 14.1571 10.9792 13.561 12.0154 12.5868C12.2866 12.3319 16.9987 8.45251 17.0899 8.10059C17.1013 8.05658 17.1119 7.89252 17.0042 7.80589C16.8965 7.71926 16.7376 7.74888 16.6229 7.77244C16.4604 7.80584 13.871 9.35493 8.85486 12.4197C8.11988 12.8765 7.45416 13.0991 6.8577 13.0875C6.20015 13.0746 4.93528 12.7509 3.99498 12.4743C2.84166 12.1349 1.92503 11.9555 2.00485 11.3793C2.04642 11.0791 2.5031 10.7721 3.3749 10.4583Z" fill="url(#paint0_linear_1354_4753)"/>
<defs>
<linearGradient id="paint0_linear_1354_4753" x1="2" y1="11.5011" x2="22" y2="11.5011" gradientUnits="userSpaceOnUse">
<stop stop-color="#A03D8C"/>
<stop offset="1" stop-color="#4C2CCA"/>
</linearGradient>
</defs>
</svg>
