<svg width="38" height="37" viewBox="0 0 38 37" fill="none" xmlns="http://www.w3.org/2000/svg">
<path d="M14.5 5H7C6.60218 5 6.22064 5.15804 5.93934 5.43934C5.65804 5.72064 5.5 6.10218 5.5 6.5V14C5.5 14.3978 5.65804 14.7794 5.93934 15.0607C6.22064 15.342 6.60218 15.5 7 15.5H14.5C14.8978 15.5 15.2794 15.342 15.5607 15.0607C15.842 14.7794 16 14.3978 16 14V6.5C16 6.10218 15.842 5.72064 15.5607 5.43934C15.2794 5.15804 14.8978 5 14.5 5ZM14.5 21.5H7C6.60218 21.5 6.22064 21.658 5.93934 21.9393C5.65804 22.2206 5.5 22.6022 5.5 23V30.5C5.5 30.8978 5.65804 31.2794 5.93934 31.5607C6.22064 31.842 6.60218 32 7 32H14.5C14.8978 32 15.2794 31.842 15.5607 31.5607C15.842 31.2794 16 30.8978 16 30.5V23C16 22.6022 15.842 22.2206 15.5607 21.9393C15.2794 21.658 14.8978 21.5 14.5 21.5ZM31 5H23.5C23.1022 5 22.7206 5.15804 22.4393 5.43934C22.158 5.72064 22 6.10218 22 6.5V14C22 14.3978 22.158 14.7794 22.4393 15.0607C22.7206 15.342 23.1022 15.5 23.5 15.5H31C31.3978 15.5 31.7794 15.342 32.0607 15.0607C32.342 14.7794 32.5 14.3978 32.5 14V6.5C32.5 6.10218 32.342 5.72064 32.0607 5.43934C31.7794 5.15804 31.3978 5 31 5ZM31 21.5H23.5C23.1022 21.5 22.7206 21.658 22.4393 21.9393C22.158 22.2206 22 22.6022 22 23V30.5C22 30.8978 22.158 31.2794 22.4393 31.5607C22.7206 31.842 23.1022 32 23.5 32H31C31.3978 32 31.7794 31.842 32.0607 31.5607C32.342 31.2794 32.5 30.8978 32.5 30.5V23C32.5 22.6022 32.342 22.2206 32.0607 21.9393C31.7794 21.658 31.3978 21.5 31 21.5Z" fill="url(#paint0_linear_700_488)" stroke="url(#paint1_linear_700_488)" stroke-width="2" stroke-linejoin="round"/>
<defs>
<linearGradient id="paint0_linear_700_488" x1="5.5" y1="18.5" x2="32.5" y2="18.5" gradientUnits="userSpaceOnUse">
<stop stop-color="#A03D8C"/>
<stop offset="1" stop-color="#4C2CCA"/>
</linearGradient>
<linearGradient id="paint1_linear_700_488" x1="5.5" y1="18.5" x2="32.5" y2="18.5" gradientUnits="userSpaceOnUse">
<stop stop-color="#A03D8C"/>
<stop offset="1" stop-color="#4C2CCA"/>
</linearGradient>
</defs>
</svg>
