<svg width="28" height="27" viewBox="0 0 28 27" fill="none" xmlns="http://www.w3.org/2000/svg">
<path d="M26.562 17.9777C21.4562 16.4399 18.4882 15.5234 17.658 15.2283C18.4553 13.8455 19.0481 12.3544 19.418 10.8017H15.066V9.32966H20.3993V8.42299H15.066V5.95899H13.018C12.6447 5.95899 12.602 6.28966 12.602 6.28966V8.41233H7.59935V9.31899H12.602V10.791H8.50602V11.6123H16.8047C16.5148 12.6189 16.1178 13.5916 15.6207 14.5137C13.7433 13.895 12.698 13.4683 10.4047 13.255C6.06335 12.839 5.06068 15.2283 4.90068 16.6897C4.66602 18.919 6.63935 20.7323 9.58335 20.7323C12.5273 20.7323 14.49 19.367 16.3567 17.1057C17.9122 17.8497 20.8073 19.1394 25.042 20.975C23.8212 22.7804 22.1759 24.2587 20.2506 25.2802C18.3254 26.3016 16.1788 26.8351 13.9993 26.8337C6.63535 26.8337 0.666016 20.8643 0.666016 13.5003C0.666016 6.13633 6.63535 0.166992 13.9993 0.166992C21.3633 0.166992 27.3327 6.13633 27.3327 13.5003C27.3338 15.0259 27.0732 16.5403 26.562 17.9777ZM9.24202 19.3243C6.12735 19.3243 5.63668 17.351 5.79668 16.5297C5.95668 15.7083 6.86335 14.6417 8.60202 14.6417C10.5967 14.6417 12.378 15.1537 14.522 16.1883C13.0073 18.1617 11.162 19.3243 9.24202 19.3243Z" fill="white"/>
</svg>
