<svg width="36" height="36" viewBox="0 0 36 36" fill="none" xmlns="http://www.w3.org/2000/svg">
<path d="M3.375 18C3.375 14.1212 4.91584 10.4013 7.65856 7.65856C10.4013 4.91584 14.1212 3.375 18 3.375C21.8788 3.375 25.5987 4.91584 28.3414 7.65856C31.0842 10.4013 32.625 14.1212 32.625 18C32.625 21.8788 31.0842 25.5987 28.3414 28.3414C25.5987 31.0842 21.8788 32.625 18 32.625C14.1212 32.625 10.4013 31.0842 7.65856 28.3414C4.91584 25.5987 3.375 21.8788 3.375 18ZM12.6968 6.8175C11.0545 7.59685 9.60415 8.72841 8.44875 10.1317L9.9045 14.8657L12.168 15.6195L16.875 12.042V9.603L12.6968 6.8175ZM5.706 19.4265C5.931 21.3727 6.606 23.184 7.62525 24.7477H11.9093L13.338 23.319L11.4863 17.7615L9.18225 16.9942L5.706 19.4265ZM15.4935 30.1185C17.147 30.4605 18.853 30.4605 20.5065 30.1185L22.284 26.1225L20.9093 24.75H15.0907L13.7183 26.1225L15.4935 30.1185ZM28.3725 24.75C29.381 23.1995 30.0292 21.4427 30.2693 19.6088L26.7975 17.0033L24.5138 17.7637L22.662 23.3212L24.0907 24.75H28.3725ZM27.5175 10.0957C26.3676 8.70829 24.9286 7.58871 23.301 6.81525L19.125 9.603V12.042L23.832 15.6195L26.091 14.868L27.5175 10.0957Z" fill="url(#paint0_linear_700_483)"/>
<defs>
<linearGradient id="paint0_linear_700_483" x1="3.375" y1="18" x2="32.625" y2="18" gradientUnits="userSpaceOnUse">
<stop stop-color="#A03D8C"/>
<stop offset="1" stop-color="#4C2CCA"/>
</linearGradient>
</defs>
</svg>
