<svg width="37" height="37" viewBox="0 0 37 37" fill="none" xmlns="http://www.w3.org/2000/svg">
<path d="M26.2083 6.16675C27.9134 6.16675 29.2223 7.46637 30.192 8.86466L30.5204 9.35954L30.821 9.85287C30.9166 10.0142 31.008 10.1725 31.0954 10.3277C32.3087 12.4968 33.3647 15.3289 34.0631 18.127C34.7569 20.9035 35.1407 23.8034 34.8956 26.0835C34.6489 28.3729 33.4696 30.8334 30.8333 30.8334C28.4684 30.8334 26.6045 29.5692 25.0906 28.3344L23.3794 26.8991C21.9564 25.7336 20.3993 24.6667 18.5 24.6667C16.6007 24.6667 15.042 25.7336 13.6222 26.8991L11.9109 28.3328C10.3939 29.5692 8.53003 30.8334 6.16665 30.8334C3.52886 30.8334 2.34949 28.3729 2.10436 26.0835C1.86078 23.8019 2.24311 20.9035 2.93686 18.127C3.63524 15.3289 4.69128 12.4968 5.90457 10.3277L6.17899 9.85133L6.47961 9.35954L6.80799 8.86466C7.7777 7.46637 9.08657 6.16675 10.7917 6.16675C11.5779 6.16675 12.3595 6.35791 13.1273 6.583L14.0415 6.86358C14.1926 6.90983 14.3426 6.95403 14.4917 6.99616C15.8252 7.3785 17.1896 7.70841 18.5 7.70841C19.8104 7.70841 21.1748 7.3785 22.5083 6.99616L23.8727 6.58454C24.6404 6.35791 25.4221 6.16675 26.2083 6.16675ZM13.1042 12.3334C12.082 12.3334 11.1016 12.7395 10.3788 13.4623C9.65605 14.1851 9.24999 15.1654 9.24999 16.1876C9.24999 17.2098 9.65605 18.1901 10.3788 18.9129C11.1016 19.6357 12.082 20.0417 13.1042 20.0417C14.1263 20.0417 15.1067 19.6357 15.8295 18.9129C16.5523 18.1901 16.9583 17.2098 16.9583 16.1876C16.9583 15.1654 16.5523 14.1851 15.8295 13.4623C15.1067 12.7395 14.1263 12.3334 13.1042 12.3334ZM23.8958 12.3334C23.4869 12.3334 23.0948 12.4958 22.8057 12.785C22.5166 13.0741 22.3542 13.4662 22.3542 13.8751V14.6459H21.5833C21.1744 14.6459 20.7823 14.8083 20.4932 15.0975C20.2041 15.3866 20.0417 15.7787 20.0417 16.1876C20.0417 16.5965 20.2041 16.9886 20.4932 17.2777C20.7823 17.5668 21.1744 17.7292 21.5833 17.7292H22.3542V18.5001C22.3542 18.909 22.5166 19.3011 22.8057 19.5902C23.0948 19.8793 23.4869 20.0417 23.8958 20.0417C24.3047 20.0417 24.6968 19.8793 24.9859 19.5902C25.2751 19.3011 25.4375 18.909 25.4375 18.5001V17.7292H26.2083C26.6172 17.7292 27.0093 17.5668 27.2984 17.2777C27.5876 16.9886 27.75 16.5965 27.75 16.1876C27.75 15.7787 27.5876 15.3866 27.2984 15.0975C27.0093 14.8083 26.6172 14.6459 26.2083 14.6459H25.4375V13.8751C25.4375 13.4662 25.2751 13.0741 24.9859 12.785C24.6968 12.4958 24.3047 12.3334 23.8958 12.3334ZM13.1042 15.4167C13.3086 15.4167 13.5047 15.498 13.6492 15.6425C13.7938 15.7871 13.875 15.9831 13.875 16.1876C13.875 16.392 13.7938 16.5881 13.6492 16.7326C13.5047 16.8772 13.3086 16.9584 13.1042 16.9584C12.8997 16.9584 12.7037 16.8772 12.5591 16.7326C12.4145 16.5881 12.3333 16.392 12.3333 16.1876C12.3333 15.9831 12.4145 15.7871 12.5591 15.6425C12.7037 15.498 12.8997 15.4167 13.1042 15.4167Z" fill="url(#paint0_linear_836_2354)"/>
<path d="M26.2083 6.16675C27.9134 6.16675 29.2223 7.46637 30.192 8.86466L30.5204 9.35954L30.821 9.85287C30.9166 10.0142 31.008 10.1725 31.0954 10.3277C32.3087 12.4968 33.3647 15.3289 34.0631 18.127C34.7569 20.9035 35.1407 23.8034 34.8956 26.0835C34.6489 28.3729 33.4696 30.8334 30.8333 30.8334C28.4684 30.8334 26.6045 29.5692 25.0906 28.3344L23.3794 26.8991C21.9564 25.7336 20.3993 24.6667 18.5 24.6667C16.6007 24.6667 15.042 25.7336 13.6222 26.8991L11.9109 28.3328C10.3939 29.5692 8.53003 30.8334 6.16665 30.8334C3.52886 30.8334 2.34949 28.3729 2.10436 26.0835C1.86078 23.8019 2.24311 20.9035 2.93686 18.127C3.63524 15.3289 4.69128 12.4968 5.90457 10.3277L6.17899 9.85133L6.47961 9.35954L6.80799 8.86466C7.7777 7.46637 9.08657 6.16675 10.7917 6.16675C11.5779 6.16675 12.3595 6.35791 13.1273 6.583L14.0415 6.86358C14.1926 6.90983 14.3426 6.95403 14.4917 6.99616C15.8252 7.3785 17.1896 7.70841 18.5 7.70841C19.8104 7.70841 21.1748 7.3785 22.5083 6.99616L23.8727 6.58454C24.6404 6.35791 25.4221 6.16675 26.2083 6.16675ZM13.1042 12.3334C12.082 12.3334 11.1016 12.7395 10.3788 13.4623C9.65605 14.1851 9.24999 15.1654 9.24999 16.1876C9.24999 17.2098 9.65605 18.1901 10.3788 18.9129C11.1016 19.6357 12.082 20.0417 13.1042 20.0417C14.1263 20.0417 15.1067 19.6357 15.8295 18.9129C16.5523 18.1901 16.9583 17.2098 16.9583 16.1876C16.9583 15.1654 16.5523 14.1851 15.8295 13.4623C15.1067 12.7395 14.1263 12.3334 13.1042 12.3334ZM23.8958 12.3334C23.4869 12.3334 23.0948 12.4958 22.8057 12.785C22.5166 13.0741 22.3542 13.4662 22.3542 13.8751V14.6459H21.5833C21.1744 14.6459 20.7823 14.8083 20.4932 15.0975C20.2041 15.3866 20.0417 15.7787 20.0417 16.1876C20.0417 16.5965 20.2041 16.9886 20.4932 17.2777C20.7823 17.5668 21.1744 17.7292 21.5833 17.7292H22.3542V18.5001C22.3542 18.909 22.5166 19.3011 22.8057 19.5902C23.0948 19.8793 23.4869 20.0417 23.8958 20.0417C24.3047 20.0417 24.6968 19.8793 24.9859 19.5902C25.2751 19.3011 25.4375 18.909 25.4375 18.5001V17.7292H26.2083C26.6172 17.7292 27.0093 17.5668 27.2984 17.2777C27.5876 16.9886 27.75 16.5965 27.75 16.1876C27.75 15.7787 27.5876 15.3866 27.2984 15.0975C27.0093 14.8083 26.6172 14.6459 26.2083 14.6459H25.4375V13.8751C25.4375 13.4662 25.2751 13.0741 24.9859 12.785C24.6968 12.4958 24.3047 12.3334 23.8958 12.3334ZM13.1042 15.4167C13.3086 15.4167 13.5047 15.498 13.6492 15.6425C13.7938 15.7871 13.875 15.9831 13.875 16.1876C13.875 16.392 13.7938 16.5881 13.6492 16.7326C13.5047 16.8772 13.3086 16.9584 13.1042 16.9584C12.8997 16.9584 12.7037 16.8772 12.5591 16.7326C12.4145 16.5881 12.3333 16.392 12.3333 16.1876C12.3333 15.9831 12.4145 15.7871 12.5591 15.6425C12.7037 15.498 12.8997 15.4167 13.1042 15.4167Z" fill="black" fill-opacity="0.2"/>
<path d="M26.2083 6.16675C27.9134 6.16675 29.2223 7.46637 30.192 8.86466L30.5204 9.35954L30.821 9.85287C30.9166 10.0142 31.008 10.1725 31.0954 10.3277C32.3087 12.4968 33.3647 15.3289 34.0631 18.127C34.7569 20.9035 35.1407 23.8034 34.8956 26.0835C34.6489 28.3729 33.4696 30.8334 30.8333 30.8334C28.4684 30.8334 26.6045 29.5692 25.0906 28.3344L23.3794 26.8991C21.9564 25.7336 20.3993 24.6667 18.5 24.6667C16.6007 24.6667 15.042 25.7336 13.6222 26.8991L11.9109 28.3328C10.3939 29.5692 8.53003 30.8334 6.16665 30.8334C3.52886 30.8334 2.34949 28.3729 2.10436 26.0835C1.86078 23.8019 2.24311 20.9035 2.93686 18.127C3.63524 15.3289 4.69128 12.4968 5.90457 10.3277L6.17899 9.85133L6.47961 9.35954L6.80799 8.86466C7.7777 7.46637 9.08657 6.16675 10.7917 6.16675C11.5779 6.16675 12.3595 6.35791 13.1273 6.583L14.0415 6.86358C14.1926 6.90983 14.3426 6.95403 14.4917 6.99616C15.8252 7.3785 17.1896 7.70841 18.5 7.70841C19.8104 7.70841 21.1748 7.3785 22.5083 6.99616L23.8727 6.58454C24.6404 6.35791 25.4221 6.16675 26.2083 6.16675ZM13.1042 12.3334C12.082 12.3334 11.1016 12.7395 10.3788 13.4623C9.65605 14.1851 9.24999 15.1654 9.24999 16.1876C9.24999 17.2098 9.65605 18.1901 10.3788 18.9129C11.1016 19.6357 12.082 20.0417 13.1042 20.0417C14.1263 20.0417 15.1067 19.6357 15.8295 18.9129C16.5523 18.1901 16.9583 17.2098 16.9583 16.1876C16.9583 15.1654 16.5523 14.1851 15.8295 13.4623C15.1067 12.7395 14.1263 12.3334 13.1042 12.3334ZM23.8958 12.3334C23.4869 12.3334 23.0948 12.4958 22.8057 12.785C22.5166 13.0741 22.3542 13.4662 22.3542 13.8751V14.6459H21.5833C21.1744 14.6459 20.7823 14.8083 20.4932 15.0975C20.2041 15.3866 20.0417 15.7787 20.0417 16.1876C20.0417 16.5965 20.2041 16.9886 20.4932 17.2777C20.7823 17.5668 21.1744 17.7292 21.5833 17.7292H22.3542V18.5001C22.3542 18.909 22.5166 19.3011 22.8057 19.5902C23.0948 19.8793 23.4869 20.0417 23.8958 20.0417C24.3047 20.0417 24.6968 19.8793 24.9859 19.5902C25.2751 19.3011 25.4375 18.909 25.4375 18.5001V17.7292H26.2083C26.6172 17.7292 27.0093 17.5668 27.2984 17.2777C27.5876 16.9886 27.75 16.5965 27.75 16.1876C27.75 15.7787 27.5876 15.3866 27.2984 15.0975C27.0093 14.8083 26.6172 14.6459 26.2083 14.6459H25.4375V13.8751C25.4375 13.4662 25.2751 13.0741 24.9859 12.785C24.6968 12.4958 24.3047 12.3334 23.8958 12.3334ZM13.1042 15.4167C13.3086 15.4167 13.5047 15.498 13.6492 15.6425C13.7938 15.7871 13.875 15.9831 13.875 16.1876C13.875 16.392 13.7938 16.5881 13.6492 16.7326C13.5047 16.8772 13.3086 16.9584 13.1042 16.9584C12.8997 16.9584 12.7037 16.8772 12.5591 16.7326C12.4145 16.5881 12.3333 16.392 12.3333 16.1876C12.3333 15.9831 12.4145 15.7871 12.5591 15.6425C12.7037 15.498 12.8997 15.4167 13.1042 15.4167Z" fill="black" fill-opacity="0.2"/>
<defs>
<linearGradient id="paint0_linear_836_2354" x1="2.03076" y1="18.5001" x2="34.9698" y2="18.5001" gradientUnits="userSpaceOnUse">
<stop stop-color="#A03D8C"/>
<stop offset="1" stop-color="#4C2CCA"/>
</linearGradient>
</defs>
</svg>
