<svg width="38" height="37" viewBox="0 0 38 37" fill="none" xmlns="http://www.w3.org/2000/svg">
<path d="M26.7083 6.16663C28.4134 6.16663 29.7223 7.46625 30.692 8.86454L31.0204 9.35942L31.321 9.85275C31.4166 10.0141 31.508 10.1724 31.5954 10.3276C32.8087 12.4967 33.8647 15.3288 34.5631 18.1269C35.2569 20.9034 35.6407 23.8033 35.3956 26.0834C35.1489 28.3728 33.9696 30.8333 31.3333 30.8333C28.9684 30.8333 27.1045 29.5691 25.5906 28.3342L23.8794 26.899C22.4564 25.7335 20.8993 24.6666 19 24.6666C17.1007 24.6666 15.542 25.7335 14.1222 26.899L12.4109 28.3327C10.8939 29.5691 9.03003 30.8333 6.66665 30.8333C4.02886 30.8333 2.84949 28.3728 2.60436 26.0834C2.36078 23.8018 2.74311 20.9034 3.43686 18.1269C4.13524 15.3288 5.19128 12.4967 6.40457 10.3276L6.67899 9.85121L6.97961 9.35942L7.30799 8.86454C8.2777 7.46625 9.58657 6.16663 11.2917 6.16663C12.0779 6.16663 12.8595 6.35779 13.6273 6.58288L14.5415 6.86346C14.6926 6.90971 14.8426 6.9539 14.9917 6.99604C16.3252 7.37838 17.6896 7.70829 19 7.70829C20.3104 7.70829 21.6748 7.37838 23.0083 6.99604L24.3727 6.58442C25.1404 6.35779 25.9221 6.16663 26.7083 6.16663ZM13.6042 12.3333C12.582 12.3333 11.6016 12.7394 10.8788 13.4622C10.1561 14.1849 9.74999 15.1653 9.74999 16.1875C9.74999 17.2096 10.1561 18.19 10.8788 18.9128C11.6016 19.6356 12.582 20.0416 13.6042 20.0416C14.6263 20.0416 15.6067 19.6356 16.3295 18.9128C17.0523 18.19 17.4583 17.2096 17.4583 16.1875C17.4583 15.1653 17.0523 14.1849 16.3295 13.4622C15.6067 12.7394 14.6263 12.3333 13.6042 12.3333ZM24.3958 12.3333C23.9869 12.3333 23.5948 12.4957 23.3057 12.7848C23.0166 13.074 22.8542 13.4661 22.8542 13.875V14.6458H22.0833C21.6744 14.6458 21.2823 14.8082 20.9932 15.0973C20.7041 15.3865 20.5417 15.7786 20.5417 16.1875C20.5417 16.5963 20.7041 16.9885 20.9932 17.2776C21.2823 17.5667 21.6744 17.7291 22.0833 17.7291H22.8542V18.5C22.8542 18.9088 23.0166 19.301 23.3057 19.5901C23.5948 19.8792 23.9869 20.0416 24.3958 20.0416C24.8047 20.0416 25.1968 19.8792 25.4859 19.5901C25.7751 19.301 25.9375 18.9088 25.9375 18.5V17.7291H26.7083C27.1172 17.7291 27.5093 17.5667 27.7984 17.2776C28.0876 16.9885 28.25 16.5963 28.25 16.1875C28.25 15.7786 28.0876 15.3865 27.7984 15.0973C27.5093 14.8082 27.1172 14.6458 26.7083 14.6458H25.9375V13.875C25.9375 13.4661 25.7751 13.074 25.4859 12.7848C25.1968 12.4957 24.8047 12.3333 24.3958 12.3333ZM13.6042 15.4166C13.8086 15.4166 14.0047 15.4978 14.1492 15.6424C14.2938 15.787 14.375 15.983 14.375 16.1875C14.375 16.3919 14.2938 16.588 14.1492 16.7325C14.0047 16.8771 13.8086 16.9583 13.6042 16.9583C13.3997 16.9583 13.2037 16.8771 13.0591 16.7325C12.9145 16.588 12.8333 16.3919 12.8333 16.1875C12.8333 15.983 12.9145 15.787 13.0591 15.6424C13.2037 15.4978 13.3997 15.4166 13.6042 15.4166Z" fill="url(#paint0_linear_836_2358)"/>
<defs>
<linearGradient id="paint0_linear_836_2358" x1="2.53076" y1="18.5" x2="35.4698" y2="18.5" gradientUnits="userSpaceOnUse">
<stop stop-color="#A03D8C"/>
<stop offset="1" stop-color="#4C2CCA"/>
</linearGradient>
</defs>
</svg>
