<svg width="32" height="33" fill="none" xmlns="http://www.w3.org/2000/svg"><mask id="a" style="mask-type:luminance" maskUnits="userSpaceOnUse" x="1" y="2" width="30" height="31"><path d="M26.158 6.878A14.294 14.294 0 0 0 16.35 3C8.425 3 2 9.43 2 17.362s6.425 14.362 14.35 14.362c3.776.006 7.4-1.484 10.083-4.143L16 17.01 26.158 6.879z" fill="#fff" stroke="#fff" stroke-width="2" stroke-linejoin="round"/><path d="M27.2 19.814a2.799 2.799 0 0 0 2.8-2.802 2.804 2.804 0 0 0-2.8-2.803 2.799 2.799 0 0 0-2.8 2.803 2.804 2.804 0 0 0 2.8 2.802z" fill="#fff" stroke="#fff" stroke-width="2" stroke-linejoin="round"/><path d="M11.1 9.305v5.605m-2.8-2.802h5.6" stroke="#000" stroke-width="2" stroke-linecap="round" stroke-linejoin="round"/></mask><g mask="url(#a)"><path d="M-.8.198h33.6v33.628H-.8V.198z" fill="url(#b)"/><path d="M-.8.198h33.6v33.628H-.8V.198z" fill="#000" fill-opacity=".2"/><path d="M-.8.198h33.6v33.628H-.8V.198z" fill="#000" fill-opacity=".2"/></g><defs><linearGradient id="b" x1="-.8" y1="17.012" x2="32.8" y2="17.012" gradientUnits="userSpaceOnUse"><stop stop-color="#A03D8C"/><stop offset="1" stop-color="#4C2CCA"/></linearGradient></defs></svg>