<svg width="36" height="36" viewBox="0 0 36 36" fill="none" xmlns="http://www.w3.org/2000/svg">
<path d="M36 18C36 16.837 34.9967 14.7122 32.7931 12.7969C31.5353 11.7149 30.1019 10.856 28.5546 10.2572C28.5032 10.238 28.4464 10.2385 28.3953 10.2588C28.3443 10.2791 28.3026 10.3176 28.2783 10.3669C28.2678 10.3873 28.2572 10.407 28.2453 10.4274L27.571 11.5453C26.4338 13.5089 25.8354 15.7379 25.8363 18.007C25.8372 20.2761 26.4373 22.5047 27.5759 24.4674L27.5921 24.4948L28.2066 25.6198C28.2392 25.6795 28.2924 25.7254 28.3562 25.749C28.4201 25.7725 28.4904 25.7721 28.5539 25.7477C33.724 23.7249 36 19.7923 36 18ZM29.3963 17.9902C29.1633 18.0206 28.9266 17.9774 28.7194 17.8665C28.5123 17.7556 28.345 17.5826 28.2412 17.3718C28.1374 17.161 28.1021 16.923 28.1404 16.6912C28.1788 16.4593 28.2887 16.2453 28.4549 16.0792C28.621 15.913 28.8351 15.8031 29.0669 15.7647C29.2987 15.7264 29.5367 15.7616 29.7475 15.8655C29.9583 15.9693 30.1313 16.1365 30.2422 16.3437C30.3531 16.5509 30.3964 16.7876 30.3659 17.0206C30.3337 17.2664 30.2212 17.4948 30.0459 17.6702C29.8705 17.8455 29.6422 17.958 29.3963 17.9902Z" fill="url(#paint0_linear_700_480)"/>
<path d="M23.5862 18C23.5853 15.3326 24.2908 12.7125 25.6309 10.4062L25.6394 10.3915L25.9642 9.85215C25.9877 9.81373 26.0016 9.77024 26.0048 9.72532C26.0079 9.68041 26.0003 9.63538 25.9824 9.59404C25.9646 9.5527 25.9371 9.51625 25.9022 9.48776C25.8674 9.45926 25.8262 9.43955 25.7821 9.43028C24.8719 9.23983 23.9495 9.11319 23.0216 9.0513C22.9122 9.04423 22.8073 9.0051 22.72 8.9388C21.3644 7.90801 18.677 6.1052 15.9377 5.64184C15.7505 5.61082 15.5585 5.62766 15.3795 5.69078C15.2006 5.7539 15.0405 5.86125 14.9142 6.00285C14.7879 6.14446 14.6995 6.31571 14.6571 6.50067C14.6148 6.68563 14.6199 6.8783 14.672 7.06075L15.4187 9.67426C15.4382 9.74199 15.4315 9.81454 15.3999 9.87756C15.3684 9.94058 15.3144 9.98947 15.2486 10.0146C12.6576 10.9772 10.4259 12.7392 8.79812 14.0822C8.6985 14.1637 8.57393 14.2086 8.4452 14.2094C8.31646 14.2101 8.19136 14.1667 8.09078 14.0864C7.86953 13.9106 7.64242 13.7374 7.40945 13.5668C4.62226 11.5312 1.34781 11.2633 1.21 11.2535C1.03502 11.2403 0.859382 11.2682 0.697112 11.3349C0.534842 11.4017 0.390443 11.5055 0.275455 11.6381C0.160468 11.7706 0.0780796 11.9282 0.034876 12.0983C-0.0083275 12.2684 -0.0111487 12.4462 0.0266381 12.6175C0.0561693 12.7532 0.67281 15.4786 2.25554 17.6526C2.32679 17.7501 2.3652 17.8677 2.3652 17.9884C2.3652 18.1091 2.32679 18.2267 2.25554 18.3241C0.67281 20.4975 0.0561693 23.2235 0.0266381 23.3592C-0.0111487 23.5305 -0.0083275 23.7084 0.034876 23.8784C0.0780796 24.0485 0.160468 24.2061 0.275455 24.3387C0.390443 24.4712 0.534842 24.575 0.697112 24.6418C0.859382 24.7086 1.03502 24.7365 1.21 24.7232C1.35062 24.7134 4.62226 24.442 7.40593 22.4114C7.63328 22.2445 7.85523 22.0753 8.07179 21.9037C8.17246 21.8235 8.2976 21.7802 8.42634 21.7811C8.55507 21.782 8.6796 21.827 8.77914 21.9086C10.4139 23.2579 12.6498 25.0221 15.2479 25.9868C15.3136 26.0119 15.3675 26.0606 15.399 26.1235C15.4305 26.1864 15.4373 26.2587 15.418 26.3264L14.6685 28.9406C14.6164 29.123 14.6113 29.3157 14.6536 29.5007C14.6959 29.6856 14.7844 29.8569 14.9107 29.9985C15.037 30.1401 15.1971 30.2474 15.376 30.3106C15.5549 30.3737 15.7469 30.3905 15.9341 30.3595C17.1407 30.1556 19.582 29.4553 22.6877 27.0668C22.7764 26.9991 22.8829 26.9587 22.9942 26.9507C23.9209 26.8901 24.8423 26.7656 25.7519 26.5781C25.7948 26.5691 25.835 26.5502 25.8693 26.5228C25.9037 26.4955 25.9311 26.4605 25.9495 26.4207C25.9679 26.3808 25.9767 26.3373 25.9752 26.2934C25.9737 26.2496 25.962 26.2067 25.941 26.1682L25.6239 25.5853C24.2876 23.2808 23.5846 20.6639 23.5862 18Z" fill="url(#paint1_linear_700_480)"/>
<defs>
<linearGradient id="paint0_linear_700_480" x1="25.8363" y1="18.0047" x2="36" y2="18.0047" gradientUnits="userSpaceOnUse">
<stop stop-color="#A03D8C"/>
<stop offset="1" stop-color="#4C2CCA"/>
</linearGradient>
<linearGradient id="paint1_linear_700_480" x1="0.000244141" y1="18.0007" x2="26.0055" y2="18.0007" gradientUnits="userSpaceOnUse">
<stop stop-color="#A03D8C"/>
<stop offset="1" stop-color="#4C2CCA"/>
</linearGradient>
</defs>
</svg>
