<svg width="38" height="34" viewBox="0 0 38 34" fill="none" xmlns="http://www.w3.org/2000/svg">
<path fill-rule="evenodd" clip-rule="evenodd" d="M24.6923 4.73143C26.8557 5.97483 28.6522 7.76321 29.9012 9.91683C31.1502 12.0705 31.8077 14.5134 31.8077 17.0002C31.8077 17.7082 31.7544 18.4126 31.6494 19.1078C31.0773 18.9314 30.4894 18.9662 29.9443 19.1914C29.8491 18.5963 29.5649 18.0737 29.1221 17.6673C28.6423 17.2268 28.0432 16.9999 27.3989 16.9999H25.8661C25.2216 16.9999 24.6229 17.2272 24.1435 17.6673C23.7007 18.0738 23.4163 18.5963 23.3207 19.1914C23.2867 19.1773 23.2525 19.164 23.2181 19.1514C23.0717 18.2544 22.6391 17.4223 21.9769 16.7827C21.1792 16.0124 20.1113 15.582 19 15.5831V12.7498C19.5095 12.7328 19.9549 12.9481 20.2324 13.3136L20.3292 13.4567C20.5239 13.7693 20.8331 13.9942 21.1914 14.084C21.5497 14.1737 21.929 14.1212 22.2491 13.9376C22.5692 13.754 22.8051 13.4536 22.9068 13.1C23.0084 12.7464 22.968 12.3673 22.794 12.0429C22.4309 11.4155 21.9129 10.8908 21.289 10.5187C20.6651 10.1466 19.9561 9.93924 19.2292 9.91643H19C19 9.54071 18.8501 9.18038 18.5832 8.9147C18.3163 8.64902 17.9544 8.49977 17.577 8.49977C17.1995 8.49977 16.8376 8.64902 16.5707 8.9147C16.3038 9.18038 16.1539 9.54071 16.1539 9.91643C15.0216 9.91643 13.9357 10.3642 13.1351 11.1612C12.3344 11.9583 11.8847 13.0393 11.8847 14.1664C11.8847 15.2936 12.3344 16.3746 13.1351 17.1716C13.9357 17.9687 15.0216 18.4164 16.1539 18.4164V21.2498C15.9179 21.2628 15.6822 21.2182 15.4675 21.12C15.2527 21.0217 15.0653 20.8727 14.9215 20.6859L14.8247 20.5429C14.63 20.2303 14.3208 20.0053 13.9625 19.9156C13.6042 19.8258 13.2249 19.8783 12.9048 20.0619C12.5847 20.2456 12.3488 20.5459 12.2472 20.8995C12.1455 21.2531 12.1859 21.6322 12.36 21.9567C12.7232 22.5838 13.2413 23.1081 13.8652 23.48C14.489 23.8519 15.198 24.059 15.9248 24.0817H16.1539C16.1536 24.4289 16.2814 24.7642 16.513 25.0238C16.7447 25.2834 17.0641 25.4492 17.4105 25.4898L17.577 25.4998C17.9544 25.4998 18.3163 25.3505 18.5832 25.0848C18.8501 24.8192 19 24.4588 19 24.0831L19.2505 24.076C19.2661 24.0751 19.2818 24.0741 19.2974 24.0731C19.4635 24.3931 19.694 24.675 19.9807 24.9096C19.518 25.2883 19.2018 25.79 19.0658 26.3767C18.9179 27.0149 19.0215 27.6511 19.3558 28.2083L20.124 29.5424L20.1337 29.5583C20.4364 30.0534 20.8747 30.4265 21.4166 30.6414C20.172 30.9886 18.8804 31.1668 17.5767 31.1668C15.0787 31.1668 12.6247 30.5121 10.4613 29.2687C8.298 28.0253 6.50157 26.2368 5.25259 24.0832C4.00362 21.9295 3.34613 19.4866 3.34619 16.9998L3.35331 16.5408C3.433 14.0942 4.14816 11.7099 5.42906 9.62034C6.70996 7.5308 8.51289 5.80732 10.6621 4.61793C12.8113 3.42854 15.2334 2.81383 17.6922 2.83372C20.1511 2.85361 22.5629 3.50743 24.6923 4.73143ZM31.3637 20.5115C31.3363 20.4995 31.3084 20.4884 31.2797 20.4781C31.3084 20.4884 31.3363 20.4995 31.3637 20.5115ZM20.4226 19.8707C20.3159 19.9905 20.2194 20.1209 20.1337 20.261L20.124 20.2769L19.6555 21.0905C19.4548 21.1942 19.2303 21.2498 19 21.2498V18.4164C19.3775 18.4164 19.7394 18.5657 20.0063 18.8314C20.2732 19.097 20.4231 19.4574 20.4231 19.8331C20.4231 19.8457 20.4229 19.8582 20.4226 19.8707ZM16.1539 15.5831C15.7765 15.5831 15.4145 15.4338 15.1476 15.1682C14.8807 14.9025 14.7308 14.5422 14.7308 14.1664C14.7308 13.7907 14.8807 13.4304 15.1476 13.1647C15.4145 12.899 15.7765 12.7498 16.1539 12.7498V15.5831ZM27.2731 25.5149C27.0944 25.6929 26.9183 25.7655 26.6651 25.7655C26.394 25.7655 26.2212 25.6883 26.0556 25.5214C25.8803 25.3445 25.8055 25.1669 25.8053 24.9087C25.8051 24.6516 25.8793 24.4749 26.0545 24.2984C26.2206 24.1311 26.394 24.0537 26.6651 24.0537C26.9183 24.0537 27.0944 24.1264 27.2731 24.3043C27.4519 24.4823 27.5249 24.6576 27.5249 24.9096C27.5249 25.1617 27.4519 25.337 27.2731 25.5149Z" fill="url(#paint0_linear_613_3048)"/>
<path fill-rule="evenodd" clip-rule="evenodd" d="M24.6923 4.73143C26.8557 5.97483 28.6522 7.76321 29.9012 9.91683C31.1502 12.0705 31.8077 14.5134 31.8077 17.0002C31.8077 17.7082 31.7544 18.4126 31.6494 19.1078C31.0773 18.9314 30.4894 18.9662 29.9443 19.1914C29.8491 18.5963 29.5649 18.0737 29.1221 17.6673C28.6423 17.2268 28.0432 16.9999 27.3989 16.9999H25.8661C25.2216 16.9999 24.6229 17.2272 24.1435 17.6673C23.7007 18.0738 23.4163 18.5963 23.3207 19.1914C23.2867 19.1773 23.2525 19.164 23.2181 19.1514C23.0717 18.2544 22.6391 17.4223 21.9769 16.7827C21.1792 16.0124 20.1113 15.582 19 15.5831V12.7498C19.5095 12.7328 19.9549 12.9481 20.2324 13.3136L20.3292 13.4567C20.5239 13.7693 20.8331 13.9942 21.1914 14.084C21.5497 14.1737 21.929 14.1212 22.2491 13.9376C22.5692 13.754 22.8051 13.4536 22.9068 13.1C23.0084 12.7464 22.968 12.3673 22.794 12.0429C22.4309 11.4155 21.9129 10.8908 21.289 10.5187C20.6651 10.1466 19.9561 9.93924 19.2292 9.91643H19C19 9.54071 18.8501 9.18038 18.5832 8.9147C18.3163 8.64902 17.9544 8.49977 17.577 8.49977C17.1995 8.49977 16.8376 8.64902 16.5707 8.9147C16.3038 9.18038 16.1539 9.54071 16.1539 9.91643C15.0216 9.91643 13.9357 10.3642 13.1351 11.1612C12.3344 11.9583 11.8847 13.0393 11.8847 14.1664C11.8847 15.2936 12.3344 16.3746 13.1351 17.1716C13.9357 17.9687 15.0216 18.4164 16.1539 18.4164V21.2498C15.9179 21.2628 15.6822 21.2182 15.4675 21.12C15.2527 21.0217 15.0653 20.8727 14.9215 20.6859L14.8247 20.5429C14.63 20.2303 14.3208 20.0053 13.9625 19.9156C13.6042 19.8258 13.2249 19.8783 12.9048 20.0619C12.5847 20.2456 12.3488 20.5459 12.2472 20.8995C12.1455 21.2531 12.1859 21.6322 12.36 21.9567C12.7232 22.5838 13.2413 23.1081 13.8652 23.48C14.489 23.8519 15.198 24.059 15.9248 24.0817H16.1539C16.1536 24.4289 16.2814 24.7642 16.513 25.0238C16.7447 25.2834 17.0641 25.4492 17.4105 25.4898L17.577 25.4998C17.9544 25.4998 18.3163 25.3505 18.5832 25.0848C18.8501 24.8192 19 24.4588 19 24.0831L19.2505 24.076C19.2661 24.0751 19.2818 24.0741 19.2974 24.0731C19.4635 24.3931 19.694 24.675 19.9807 24.9096C19.518 25.2883 19.2018 25.79 19.0658 26.3767C18.9179 27.0149 19.0215 27.6511 19.3558 28.2083L20.124 29.5424L20.1337 29.5583C20.4364 30.0534 20.8747 30.4265 21.4166 30.6414C20.172 30.9886 18.8804 31.1668 17.5767 31.1668C15.0787 31.1668 12.6247 30.5121 10.4613 29.2687C8.298 28.0253 6.50157 26.2368 5.25259 24.0832C4.00362 21.9295 3.34613 19.4866 3.34619 16.9998L3.35331 16.5408C3.433 14.0942 4.14816 11.7099 5.42906 9.62034C6.70996 7.5308 8.51289 5.80732 10.6621 4.61793C12.8113 3.42854 15.2334 2.81383 17.6922 2.83372C20.1511 2.85361 22.5629 3.50743 24.6923 4.73143ZM31.3637 20.5115C31.3363 20.4995 31.3084 20.4884 31.2797 20.4781C31.3084 20.4884 31.3363 20.4995 31.3637 20.5115ZM20.4226 19.8707C20.3159 19.9905 20.2194 20.1209 20.1337 20.261L20.124 20.2769L19.6555 21.0905C19.4548 21.1942 19.2303 21.2498 19 21.2498V18.4164C19.3775 18.4164 19.7394 18.5657 20.0063 18.8314C20.2732 19.097 20.4231 19.4574 20.4231 19.8331C20.4231 19.8457 20.4229 19.8582 20.4226 19.8707ZM16.1539 15.5831C15.7765 15.5831 15.4145 15.4338 15.1476 15.1682C14.8807 14.9025 14.7308 14.5422 14.7308 14.1664C14.7308 13.7907 14.8807 13.4304 15.1476 13.1647C15.4145 12.899 15.7765 12.7498 16.1539 12.7498V15.5831ZM27.2731 25.5149C27.0944 25.6929 26.9183 25.7655 26.6651 25.7655C26.394 25.7655 26.2212 25.6883 26.0556 25.5214C25.8803 25.3445 25.8055 25.1669 25.8053 24.9087C25.8051 24.6516 25.8793 24.4749 26.0545 24.2984C26.2206 24.1311 26.394 24.0537 26.6651 24.0537C26.9183 24.0537 27.0944 24.1264 27.2731 24.3043C27.4519 24.4823 27.5249 24.6576 27.5249 24.9096C27.5249 25.1617 27.4519 25.337 27.2731 25.5149Z" fill="black" fill-opacity="0.2"/>
<path fill-rule="evenodd" clip-rule="evenodd" d="M24.6923 4.73143C26.8557 5.97483 28.6522 7.76321 29.9012 9.91683C31.1502 12.0705 31.8077 14.5134 31.8077 17.0002C31.8077 17.7082 31.7544 18.4126 31.6494 19.1078C31.0773 18.9314 30.4894 18.9662 29.9443 19.1914C29.8491 18.5963 29.5649 18.0737 29.1221 17.6673C28.6423 17.2268 28.0432 16.9999 27.3989 16.9999H25.8661C25.2216 16.9999 24.6229 17.2272 24.1435 17.6673C23.7007 18.0738 23.4163 18.5963 23.3207 19.1914C23.2867 19.1773 23.2525 19.164 23.2181 19.1514C23.0717 18.2544 22.6391 17.4223 21.9769 16.7827C21.1792 16.0124 20.1113 15.582 19 15.5831V12.7498C19.5095 12.7328 19.9549 12.9481 20.2324 13.3136L20.3292 13.4567C20.5239 13.7693 20.8331 13.9942 21.1914 14.084C21.5497 14.1737 21.929 14.1212 22.2491 13.9376C22.5692 13.754 22.8051 13.4536 22.9068 13.1C23.0084 12.7464 22.968 12.3673 22.794 12.0429C22.4309 11.4155 21.9129 10.8908 21.289 10.5187C20.6651 10.1466 19.9561 9.93924 19.2292 9.91643H19C19 9.54071 18.8501 9.18038 18.5832 8.9147C18.3163 8.64902 17.9544 8.49977 17.577 8.49977C17.1995 8.49977 16.8376 8.64902 16.5707 8.9147C16.3038 9.18038 16.1539 9.54071 16.1539 9.91643C15.0216 9.91643 13.9357 10.3642 13.1351 11.1612C12.3344 11.9583 11.8847 13.0393 11.8847 14.1664C11.8847 15.2936 12.3344 16.3746 13.1351 17.1716C13.9357 17.9687 15.0216 18.4164 16.1539 18.4164V21.2498C15.9179 21.2628 15.6822 21.2182 15.4675 21.12C15.2527 21.0217 15.0653 20.8727 14.9215 20.6859L14.8247 20.5429C14.63 20.2303 14.3208 20.0053 13.9625 19.9156C13.6042 19.8258 13.2249 19.8783 12.9048 20.0619C12.5847 20.2456 12.3488 20.5459 12.2472 20.8995C12.1455 21.2531 12.1859 21.6322 12.36 21.9567C12.7232 22.5838 13.2413 23.1081 13.8652 23.48C14.489 23.8519 15.198 24.059 15.9248 24.0817H16.1539C16.1536 24.4289 16.2814 24.7642 16.513 25.0238C16.7447 25.2834 17.0641 25.4492 17.4105 25.4898L17.577 25.4998C17.9544 25.4998 18.3163 25.3505 18.5832 25.0848C18.8501 24.8192 19 24.4588 19 24.0831L19.2505 24.076C19.2661 24.0751 19.2818 24.0741 19.2974 24.0731C19.4635 24.3931 19.694 24.675 19.9807 24.9096C19.518 25.2883 19.2018 25.79 19.0658 26.3767C18.9179 27.0149 19.0215 27.6511 19.3558 28.2083L20.124 29.5424L20.1337 29.5583C20.4364 30.0534 20.8747 30.4265 21.4166 30.6414C20.172 30.9886 18.8804 31.1668 17.5767 31.1668C15.0787 31.1668 12.6247 30.5121 10.4613 29.2687C8.298 28.0253 6.50157 26.2368 5.25259 24.0832C4.00362 21.9295 3.34613 19.4866 3.34619 16.9998L3.35331 16.5408C3.433 14.0942 4.14816 11.7099 5.42906 9.62034C6.70996 7.5308 8.51289 5.80732 10.6621 4.61793C12.8113 3.42854 15.2334 2.81383 17.6922 2.83372C20.1511 2.85361 22.5629 3.50743 24.6923 4.73143ZM31.3637 20.5115C31.3363 20.4995 31.3084 20.4884 31.2797 20.4781C31.3084 20.4884 31.3363 20.4995 31.3637 20.5115ZM20.4226 19.8707C20.3159 19.9905 20.2194 20.1209 20.1337 20.261L20.124 20.2769L19.6555 21.0905C19.4548 21.1942 19.2303 21.2498 19 21.2498V18.4164C19.3775 18.4164 19.7394 18.5657 20.0063 18.8314C20.2732 19.097 20.4231 19.4574 20.4231 19.8331C20.4231 19.8457 20.4229 19.8582 20.4226 19.8707ZM16.1539 15.5831C15.7765 15.5831 15.4145 15.4338 15.1476 15.1682C14.8807 14.9025 14.7308 14.5422 14.7308 14.1664C14.7308 13.7907 14.8807 13.4304 15.1476 13.1647C15.4145 12.899 15.7765 12.7498 16.1539 12.7498V15.5831ZM27.2731 25.5149C27.0944 25.6929 26.9183 25.7655 26.6651 25.7655C26.394 25.7655 26.2212 25.6883 26.0556 25.5214C25.8803 25.3445 25.8055 25.1669 25.8053 24.9087C25.8051 24.6516 25.8793 24.4749 26.0545 24.2984C26.2206 24.1311 26.394 24.0537 26.6651 24.0537C26.9183 24.0537 27.0944 24.1264 27.2731 24.3043C27.4519 24.4823 27.5249 24.6576 27.5249 24.9096C27.5249 25.1617 27.4519 25.337 27.2731 25.5149Z" fill="black" fill-opacity="0.2"/>
<path d="M25.8661 31.4029C25.5726 31.4029 25.3199 31.3055 25.1082 31.1107C24.8964 30.9159 24.7686 30.6778 24.7246 30.3964L24.5779 29.3251C24.4366 29.271 24.3035 29.206 24.1787 29.1303C24.0539 29.0545 23.9315 28.9734 23.8115 28.8868L22.8005 29.3088C22.5288 29.4279 22.257 29.4387 21.9852 29.3413C21.7135 29.2439 21.5015 29.0708 21.3493 28.8219L20.5829 27.4908C20.4307 27.2419 20.3872 26.9768 20.4524 26.6954C20.5177 26.414 20.6644 26.1814 20.8927 25.9974L21.7569 25.3481C21.7461 25.2723 21.7406 25.1992 21.7406 25.1286V24.6903C21.7406 24.6202 21.7461 24.5473 21.7569 24.4715L20.8927 23.8222C20.6644 23.6382 20.5177 23.4056 20.4524 23.1242C20.3872 22.8428 20.4307 22.5777 20.5829 22.3288L21.3493 20.9977C21.5015 20.7488 21.7135 20.5757 21.9852 20.4783C22.257 20.3809 22.5288 20.3917 22.8005 20.5108L23.8115 20.9328C23.9311 20.8462 24.0561 20.7651 24.1865 20.6893C24.317 20.6136 24.4474 20.5486 24.5779 20.4945L24.7246 19.4232C24.7681 19.1418 24.896 18.9037 25.1082 18.7089C25.3204 18.5141 25.573 18.4167 25.8661 18.4167H27.3988C27.6924 18.4167 27.9452 18.5141 28.1574 18.7089C28.3696 18.9037 28.4972 19.1418 28.5403 19.4232L28.687 20.4945C28.8283 20.5486 28.9616 20.6136 29.0868 20.6893C29.2121 20.7651 29.3343 20.8462 29.4534 20.9328L30.4644 20.5108C30.7362 20.3917 31.0079 20.3809 31.2797 20.4783C31.5515 20.5757 31.7634 20.7488 31.9156 20.9977L32.682 22.3288C32.8342 22.5777 32.8777 22.8428 32.8125 23.1242C32.7472 23.4056 32.6005 23.6382 32.3722 23.8222L31.508 24.4715C31.5188 24.5473 31.5243 24.6204 31.5243 24.691V25.1286C31.5243 25.1992 31.5134 25.2723 31.4917 25.3481L32.3559 25.9974C32.5842 26.1814 32.7309 26.414 32.7962 26.6954C32.8614 26.9768 32.8179 27.2419 32.6657 27.4908L31.883 28.8219C31.7308 29.0708 31.5188 29.2439 31.2471 29.3413C30.9753 29.4387 30.7035 29.4279 30.4318 29.3088L29.4534 28.8868C29.3338 28.9734 29.2088 29.0545 29.0784 29.1303C28.9479 29.206 28.8175 29.271 28.687 29.3251L28.5403 30.3964C28.4968 30.6778 28.3692 30.9159 28.1574 31.1107C27.9456 31.3055 27.6928 31.4029 27.3988 31.4029H25.8661ZM26.6651 27.1824C27.2956 27.1824 27.8337 26.9605 28.2794 26.5168C28.7251 26.0731 28.9479 25.5375 28.9479 24.9098C28.9479 24.2821 28.7251 23.7465 28.2794 23.3028C27.8337 22.8591 27.2956 22.6372 26.6651 22.6372C26.0237 22.6372 25.4828 22.8591 25.0423 23.3028C24.6018 23.7465 24.3818 24.2821 24.3822 24.9098C24.3826 25.5375 24.6029 26.0731 25.0429 26.5168C25.483 26.9605 26.0237 27.1824 26.6651 27.1824Z" fill="url(#paint1_linear_613_3048)"/>
<path d="M25.8661 31.4029C25.5726 31.4029 25.3199 31.3055 25.1082 31.1107C24.8964 30.9159 24.7686 30.6778 24.7246 30.3964L24.5779 29.3251C24.4366 29.271 24.3035 29.206 24.1787 29.1303C24.0539 29.0545 23.9315 28.9734 23.8115 28.8868L22.8005 29.3088C22.5288 29.4279 22.257 29.4387 21.9852 29.3413C21.7135 29.2439 21.5015 29.0708 21.3493 28.8219L20.5829 27.4908C20.4307 27.2419 20.3872 26.9768 20.4524 26.6954C20.5177 26.414 20.6644 26.1814 20.8927 25.9974L21.7569 25.3481C21.7461 25.2723 21.7406 25.1992 21.7406 25.1286V24.6903C21.7406 24.6202 21.7461 24.5473 21.7569 24.4715L20.8927 23.8222C20.6644 23.6382 20.5177 23.4056 20.4524 23.1242C20.3872 22.8428 20.4307 22.5777 20.5829 22.3288L21.3493 20.9977C21.5015 20.7488 21.7135 20.5757 21.9852 20.4783C22.257 20.3809 22.5288 20.3917 22.8005 20.5108L23.8115 20.9328C23.9311 20.8462 24.0561 20.7651 24.1865 20.6893C24.317 20.6136 24.4474 20.5486 24.5779 20.4945L24.7246 19.4232C24.7681 19.1418 24.896 18.9037 25.1082 18.7089C25.3204 18.5141 25.573 18.4167 25.8661 18.4167H27.3988C27.6924 18.4167 27.9452 18.5141 28.1574 18.7089C28.3696 18.9037 28.4972 19.1418 28.5403 19.4232L28.687 20.4945C28.8283 20.5486 28.9616 20.6136 29.0868 20.6893C29.2121 20.7651 29.3343 20.8462 29.4534 20.9328L30.4644 20.5108C30.7362 20.3917 31.0079 20.3809 31.2797 20.4783C31.5515 20.5757 31.7634 20.7488 31.9156 20.9977L32.682 22.3288C32.8342 22.5777 32.8777 22.8428 32.8125 23.1242C32.7472 23.4056 32.6005 23.6382 32.3722 23.8222L31.508 24.4715C31.5188 24.5473 31.5243 24.6204 31.5243 24.691V25.1286C31.5243 25.1992 31.5134 25.2723 31.4917 25.3481L32.3559 25.9974C32.5842 26.1814 32.7309 26.414 32.7962 26.6954C32.8614 26.9768 32.8179 27.2419 32.6657 27.4908L31.883 28.8219C31.7308 29.0708 31.5188 29.2439 31.2471 29.3413C30.9753 29.4387 30.7035 29.4279 30.4318 29.3088L29.4534 28.8868C29.3338 28.9734 29.2088 29.0545 29.0784 29.1303C28.9479 29.206 28.8175 29.271 28.687 29.3251L28.5403 30.3964C28.4968 30.6778 28.3692 30.9159 28.1574 31.1107C27.9456 31.3055 27.6928 31.4029 27.3988 31.4029H25.8661ZM26.6651 27.1824C27.2956 27.1824 27.8337 26.9605 28.2794 26.5168C28.7251 26.0731 28.9479 25.5375 28.9479 24.9098C28.9479 24.2821 28.7251 23.7465 28.2794 23.3028C27.8337 22.8591 27.2956 22.6372 26.6651 22.6372C26.0237 22.6372 25.4828 22.8591 25.0423 23.3028C24.6018 23.7465 24.3818 24.2821 24.3822 24.9098C24.3826 25.5375 24.6029 26.0731 25.0429 26.5168C25.483 26.9605 26.0237 27.1824 26.6651 27.1824Z" fill="black" fill-opacity="0.2"/>
<path d="M25.8661 31.4029C25.5726 31.4029 25.3199 31.3055 25.1082 31.1107C24.8964 30.9159 24.7686 30.6778 24.7246 30.3964L24.5779 29.3251C24.4366 29.271 24.3035 29.206 24.1787 29.1303C24.0539 29.0545 23.9315 28.9734 23.8115 28.8868L22.8005 29.3088C22.5288 29.4279 22.257 29.4387 21.9852 29.3413C21.7135 29.2439 21.5015 29.0708 21.3493 28.8219L20.5829 27.4908C20.4307 27.2419 20.3872 26.9768 20.4524 26.6954C20.5177 26.414 20.6644 26.1814 20.8927 25.9974L21.7569 25.3481C21.7461 25.2723 21.7406 25.1992 21.7406 25.1286V24.6903C21.7406 24.6202 21.7461 24.5473 21.7569 24.4715L20.8927 23.8222C20.6644 23.6382 20.5177 23.4056 20.4524 23.1242C20.3872 22.8428 20.4307 22.5777 20.5829 22.3288L21.3493 20.9977C21.5015 20.7488 21.7135 20.5757 21.9852 20.4783C22.257 20.3809 22.5288 20.3917 22.8005 20.5108L23.8115 20.9328C23.9311 20.8462 24.0561 20.7651 24.1865 20.6893C24.317 20.6136 24.4474 20.5486 24.5779 20.4945L24.7246 19.4232C24.7681 19.1418 24.896 18.9037 25.1082 18.7089C25.3204 18.5141 25.573 18.4167 25.8661 18.4167H27.3988C27.6924 18.4167 27.9452 18.5141 28.1574 18.7089C28.3696 18.9037 28.4972 19.1418 28.5403 19.4232L28.687 20.4945C28.8283 20.5486 28.9616 20.6136 29.0868 20.6893C29.2121 20.7651 29.3343 20.8462 29.4534 20.9328L30.4644 20.5108C30.7362 20.3917 31.0079 20.3809 31.2797 20.4783C31.5515 20.5757 31.7634 20.7488 31.9156 20.9977L32.682 22.3288C32.8342 22.5777 32.8777 22.8428 32.8125 23.1242C32.7472 23.4056 32.6005 23.6382 32.3722 23.8222L31.508 24.4715C31.5188 24.5473 31.5243 24.6204 31.5243 24.691V25.1286C31.5243 25.1992 31.5134 25.2723 31.4917 25.3481L32.3559 25.9974C32.5842 26.1814 32.7309 26.414 32.7962 26.6954C32.8614 26.9768 32.8179 27.2419 32.6657 27.4908L31.883 28.8219C31.7308 29.0708 31.5188 29.2439 31.2471 29.3413C30.9753 29.4387 30.7035 29.4279 30.4318 29.3088L29.4534 28.8868C29.3338 28.9734 29.2088 29.0545 29.0784 29.1303C28.9479 29.206 28.8175 29.271 28.687 29.3251L28.5403 30.3964C28.4968 30.6778 28.3692 30.9159 28.1574 31.1107C27.9456 31.3055 27.6928 31.4029 27.3988 31.4029H25.8661ZM26.6651 27.1824C27.2956 27.1824 27.8337 26.9605 28.2794 26.5168C28.7251 26.0731 28.9479 25.5375 28.9479 24.9098C28.9479 24.2821 28.7251 23.7465 28.2794 23.3028C27.8337 22.8591 27.2956 22.6372 26.6651 22.6372C26.0237 22.6372 25.4828 22.8591 25.0423 23.3028C24.6018 23.7465 24.3818 24.2821 24.3822 24.9098C24.3826 25.5375 24.6029 26.0731 25.0429 26.5168C25.483 26.9605 26.0237 27.1824 26.6651 27.1824Z" fill="black" fill-opacity="0.2"/>
<defs>
<linearGradient id="paint0_linear_613_3048" x1="3.34619" y1="17" x2="31.8077" y2="17" gradientUnits="userSpaceOnUse">
<stop stop-color="#A03D8C"/>
<stop offset="1" stop-color="#4C2CCA"/>
</linearGradient>
<linearGradient id="paint1_linear_613_3048" x1="20.4231" y1="24.9098" x2="32.8418" y2="24.9098" gradientUnits="userSpaceOnUse">
<stop stop-color="#A03D8C"/>
<stop offset="1" stop-color="#4C2CCA"/>
</linearGradient>
</defs>
</svg>
