<svg width="18" height="18" viewBox="0 0 18 18" fill="none" xmlns="http://www.w3.org/2000/svg">
<path d="M8.5 1C12.6423 1 16 4.35775 16 8.5C16 12.6423 12.6423 16 8.5 16C4.35775 16 1 12.6423 1 8.5C1 4.35775 4.35775 1 8.5 1ZM8.5 11.5C8.30109 11.5 8.11032 11.579 7.96967 11.7197C7.82902 11.8603 7.75 12.0511 7.75 12.25C7.75 12.4489 7.82902 12.6397 7.96967 12.7803C8.11032 12.921 8.30109 13 8.5 13C8.69891 13 8.88968 12.921 9.03033 12.7803C9.17098 12.6397 9.25 12.4489 9.25 12.25C9.25 12.0511 9.17098 11.8603 9.03033 11.7197C8.88968 11.579 8.69891 11.5 8.5 11.5ZM8.5 4.375C7.77894 4.375 7.08742 4.66144 6.57755 5.1713C6.06769 5.68117 5.78125 6.37269 5.78125 7.09375C5.78125 7.29266 5.86027 7.48343 6.00092 7.62408C6.14157 7.76473 6.33234 7.84375 6.53125 7.84375C6.73016 7.84375 6.92093 7.76473 7.06158 7.62408C7.20223 7.48343 7.28125 7.29266 7.28125 7.09375C7.2815 6.87253 7.34195 6.65554 7.45614 6.46607C7.57032 6.27659 7.73392 6.12176 7.9294 6.01819C8.12488 5.91462 8.34487 5.8662 8.56577 5.87814C8.78667 5.89008 9.00015 5.96192 9.18333 6.08596C9.36651 6.20999 9.51248 6.38155 9.60557 6.58223C9.69867 6.78291 9.73539 7.00514 9.7118 7.2251C9.6882 7.44506 9.60518 7.65446 9.47164 7.83082C9.3381 8.00719 9.15907 8.14389 8.95375 8.22625C8.44675 8.42875 7.75 8.94775 7.75 9.8125V10C7.75 10.1989 7.82902 10.3897 7.96967 10.5303C8.11032 10.671 8.30109 10.75 8.5 10.75C8.69891 10.75 8.88968 10.671 9.03033 10.5303C9.17098 10.3897 9.25 10.1989 9.25 10C9.25 9.817 9.2875 9.7255 9.44575 9.6475L9.511 9.6175C10.0966 9.38192 10.582 8.94997 10.8841 8.39569C11.1861 7.84141 11.2859 7.19934 11.1663 6.57954C11.0468 5.95974 10.7154 5.40082 10.2289 4.9986C9.74246 4.59638 9.13122 4.37592 8.5 4.375Z" fill="black" fill-opacity="0.5"/>
</svg>
