<svg width="34" height="34" viewBox="0 0 34 34" fill="none" xmlns="http://www.w3.org/2000/svg">
<path fill-rule="evenodd" clip-rule="evenodd" d="M9.20833 31.1666H28.3333C28.7091 31.1666 29.0694 31.0173 29.3351 30.7517C29.6007 30.486 29.75 30.1256 29.75 29.7499V4.24992C29.75 3.8742 29.6007 3.51386 29.3351 3.24818C29.0694 2.98251 28.7091 2.83325 28.3333 2.83325H8.5C7.37283 2.83325 6.29183 3.28102 5.4948 4.07805C4.69777 4.87508 4.25 5.95608 4.25 7.08325V26.2083C4.25 27.5233 4.77239 28.7845 5.70226 29.7143C6.63213 30.6442 7.8933 31.1666 9.20833 31.1666ZM26.9167 24.0833V28.3333H9.20833C8.64475 28.3333 8.10425 28.1094 7.70573 27.7109C7.30722 27.3123 7.08333 26.7718 7.08333 26.2083C7.08333 25.6447 7.30722 25.1042 7.70573 24.7057C8.10425 24.3071 8.64475 24.0833 9.20833 24.0833H26.9167ZM20.5411 9.01728H19.3605C19.3605 8.15606 18.3748 7.74169 17.5897 7.60061V10.5349C18.9149 10.7108 20.5411 11.4746 20.5411 13.1492C20.5411 14.8238 18.9149 15.5883 17.5897 15.7642V16.986H16.4091V15.7677C14.8892 15.5806 13.4577 14.6775 13.4577 13.1492H14.6383C14.6383 13.9614 15.5544 14.4177 16.4091 14.5659V11.6322C15.0314 11.4451 13.4577 10.6146 13.4577 9.01728C13.4577 7.34266 15.084 6.57884 16.4091 6.40294V5.18047H17.5897V6.40294C18.9149 6.57884 20.5411 7.34266 20.5411 9.01728ZM16.4091 7.60061C15.6241 7.74169 14.6383 8.15606 14.6383 9.01728C14.6383 9.8419 15.5999 10.284 16.4091 10.4334V7.60061ZM17.5897 14.5659C18.3748 14.4248 19.3605 14.0104 19.3605 13.1492C19.3605 12.288 18.3748 11.8736 17.5897 11.7326V14.5659Z" fill="url(#paint0_linear_613_3051)"/>
<path fill-rule="evenodd" clip-rule="evenodd" d="M9.20833 31.1666H28.3333C28.7091 31.1666 29.0694 31.0173 29.3351 30.7517C29.6007 30.486 29.75 30.1256 29.75 29.7499V4.24992C29.75 3.8742 29.6007 3.51386 29.3351 3.24818C29.0694 2.98251 28.7091 2.83325 28.3333 2.83325H8.5C7.37283 2.83325 6.29183 3.28102 5.4948 4.07805C4.69777 4.87508 4.25 5.95608 4.25 7.08325V26.2083C4.25 27.5233 4.77239 28.7845 5.70226 29.7143C6.63213 30.6442 7.8933 31.1666 9.20833 31.1666ZM26.9167 24.0833V28.3333H9.20833C8.64475 28.3333 8.10425 28.1094 7.70573 27.7109C7.30722 27.3123 7.08333 26.7718 7.08333 26.2083C7.08333 25.6447 7.30722 25.1042 7.70573 24.7057C8.10425 24.3071 8.64475 24.0833 9.20833 24.0833H26.9167ZM20.5411 9.01728H19.3605C19.3605 8.15606 18.3748 7.74169 17.5897 7.60061V10.5349C18.9149 10.7108 20.5411 11.4746 20.5411 13.1492C20.5411 14.8238 18.9149 15.5883 17.5897 15.7642V16.986H16.4091V15.7677C14.8892 15.5806 13.4577 14.6775 13.4577 13.1492H14.6383C14.6383 13.9614 15.5544 14.4177 16.4091 14.5659V11.6322C15.0314 11.4451 13.4577 10.6146 13.4577 9.01728C13.4577 7.34266 15.084 6.57884 16.4091 6.40294V5.18047H17.5897V6.40294C18.9149 6.57884 20.5411 7.34266 20.5411 9.01728ZM16.4091 7.60061C15.6241 7.74169 14.6383 8.15606 14.6383 9.01728C14.6383 9.8419 15.5999 10.284 16.4091 10.4334V7.60061ZM17.5897 14.5659C18.3748 14.4248 19.3605 14.0104 19.3605 13.1492C19.3605 12.288 18.3748 11.8736 17.5897 11.7326V14.5659Z" fill="black" fill-opacity="0.2"/>
<path fill-rule="evenodd" clip-rule="evenodd" d="M9.20833 31.1666H28.3333C28.7091 31.1666 29.0694 31.0173 29.3351 30.7517C29.6007 30.486 29.75 30.1256 29.75 29.7499V4.24992C29.75 3.8742 29.6007 3.51386 29.3351 3.24818C29.0694 2.98251 28.7091 2.83325 28.3333 2.83325H8.5C7.37283 2.83325 6.29183 3.28102 5.4948 4.07805C4.69777 4.87508 4.25 5.95608 4.25 7.08325V26.2083C4.25 27.5233 4.77239 28.7845 5.70226 29.7143C6.63213 30.6442 7.8933 31.1666 9.20833 31.1666ZM26.9167 24.0833V28.3333H9.20833C8.64475 28.3333 8.10425 28.1094 7.70573 27.7109C7.30722 27.3123 7.08333 26.7718 7.08333 26.2083C7.08333 25.6447 7.30722 25.1042 7.70573 24.7057C8.10425 24.3071 8.64475 24.0833 9.20833 24.0833H26.9167ZM20.5411 9.01728H19.3605C19.3605 8.15606 18.3748 7.74169 17.5897 7.60061V10.5349C18.9149 10.7108 20.5411 11.4746 20.5411 13.1492C20.5411 14.8238 18.9149 15.5883 17.5897 15.7642V16.986H16.4091V15.7677C14.8892 15.5806 13.4577 14.6775 13.4577 13.1492H14.6383C14.6383 13.9614 15.5544 14.4177 16.4091 14.5659V11.6322C15.0314 11.4451 13.4577 10.6146 13.4577 9.01728C13.4577 7.34266 15.084 6.57884 16.4091 6.40294V5.18047H17.5897V6.40294C18.9149 6.57884 20.5411 7.34266 20.5411 9.01728ZM16.4091 7.60061C15.6241 7.74169 14.6383 8.15606 14.6383 9.01728C14.6383 9.8419 15.5999 10.284 16.4091 10.4334V7.60061ZM17.5897 14.5659C18.3748 14.4248 19.3605 14.0104 19.3605 13.1492C19.3605 12.288 18.3748 11.8736 17.5897 11.7326V14.5659Z" fill="black" fill-opacity="0.2"/>
<defs>
<linearGradient id="paint0_linear_613_3051" x1="4.25" y1="16.9999" x2="29.75" y2="16.9999" gradientUnits="userSpaceOnUse">
<stop stop-color="#A03D8C"/>
<stop offset="1" stop-color="#4C2CCA"/>
</linearGradient>
</defs>
</svg>
