<svg width="10" height="10" viewBox="0 0 10 10" fill="none" xmlns="http://www.w3.org/2000/svg">
<g clip-path="url(#clip0_685_2382)">
<path d="M6.66675 6.66683C6.66675 6.20641 5.36091 5.8335 3.75008 5.8335M6.66675 6.66683C6.66675 7.12725 5.36091 7.50016 3.75008 7.50016C2.13925 7.50016 0.833415 7.12725 0.833415 6.66683M6.66675 6.66683V8.72391C6.66675 9.1985 5.36091 9.5835 3.75008 9.5835C2.13925 9.5835 0.833415 9.19891 0.833415 8.72391V6.66683M6.66675 6.66683C8.26008 6.66683 9.58342 6.25558 9.58342 5.8335V1.66683M3.75008 5.8335C2.13925 5.8335 0.833415 6.20641 0.833415 6.66683M3.75008 5.8335C1.90925 5.8335 0.416748 5.42225 0.416748 5.00016V2.91683M3.75008 2.0835C1.90925 2.0835 0.416748 2.45641 0.416748 2.91683M0.416748 2.91683C0.416748 3.37725 1.90925 3.75016 3.75008 3.75016C3.75008 4.17225 5.1055 4.5835 6.69883 4.5835C8.29216 4.5835 9.58342 4.17225 9.58342 3.75016M9.58342 1.66683C9.58342 1.20641 8.29175 0.833496 6.69883 0.833496C5.10591 0.833496 3.81425 1.20641 3.81425 1.66683M9.58342 1.66683C9.58342 2.12725 8.29175 2.50016 6.69883 2.50016C5.10591 2.50016 3.81425 2.12725 3.81425 1.66683M3.81425 1.66683V5.90266" stroke="white"/>
</g>
<defs>
<clipPath id="clip0_685_2382">
<rect width="10" height="10" fill="white"/>
</clipPath>
</defs>
</svg>
