<svg width="36" height="36" viewBox="0 0 36 36" fill="none" xmlns="http://www.w3.org/2000/svg">
<path d="M24 6C24.3978 6 24.7794 6.15804 25.0607 6.43934C25.342 6.72064 25.5 7.10218 25.5 7.5V13.8L33.3195 8.325C33.4319 8.24618 33.5639 8.19975 33.7009 8.19075C33.8379 8.18176 33.9747 8.21055 34.0965 8.27399C34.2183 8.33743 34.3203 8.43309 34.3915 8.55053C34.4626 8.66797 34.5002 8.80269 34.5 8.94V27.06C34.5002 27.1973 34.4626 27.332 34.3915 27.4495C34.3203 27.5669 34.2183 27.6626 34.0965 27.726C33.9747 27.7894 33.8379 27.8182 33.7009 27.8092C33.5639 27.8003 33.4319 27.7538 33.3195 27.675L25.5 22.2V28.5C25.5 28.8978 25.342 29.2794 25.0607 29.5607C24.7794 29.842 24.3978 30 24 30H3C2.60218 30 2.22064 29.842 1.93934 29.5607C1.65804 29.2794 1.5 28.8978 1.5 28.5V7.5C1.5 7.10218 1.65804 6.72064 1.93934 6.43934C2.22064 6.15804 2.60218 6 3 6H24ZM11.1 13.2435C10.9617 13.2435 10.8276 13.2912 10.7205 13.3787C10.6133 13.4662 10.5397 13.588 10.512 13.7235L10.5 13.842V22.155C10.5 22.2522 10.5236 22.3479 10.5687 22.4339C10.6139 22.52 10.6793 22.5937 10.7592 22.6489C10.8392 22.7041 10.9314 22.739 11.0278 22.7507C11.1243 22.7624 11.2222 22.7505 11.313 22.716L11.4225 22.662L17.955 18.5055C18.0315 18.4568 18.0959 18.3913 18.1435 18.3141C18.191 18.2369 18.2205 18.1499 18.2296 18.0597C18.2387 17.9694 18.2272 17.8783 18.196 17.7932C18.1648 17.708 18.1147 17.631 18.0495 17.568L17.955 17.493L11.4225 13.335C11.3257 13.275 11.2139 13.2423 11.1 13.2435Z" fill="url(#paint0_linear_700_475)"/>
<path d="M24 6C24.3978 6 24.7794 6.15804 25.0607 6.43934C25.342 6.72064 25.5 7.10218 25.5 7.5V13.8L33.3195 8.325C33.4319 8.24618 33.5639 8.19975 33.7009 8.19075C33.8379 8.18176 33.9747 8.21055 34.0965 8.27399C34.2183 8.33743 34.3203 8.43309 34.3915 8.55053C34.4626 8.66797 34.5002 8.80269 34.5 8.94V27.06C34.5002 27.1973 34.4626 27.332 34.3915 27.4495C34.3203 27.5669 34.2183 27.6626 34.0965 27.726C33.9747 27.7894 33.8379 27.8182 33.7009 27.8092C33.5639 27.8003 33.4319 27.7538 33.3195 27.675L25.5 22.2V28.5C25.5 28.8978 25.342 29.2794 25.0607 29.5607C24.7794 29.842 24.3978 30 24 30H3C2.60218 30 2.22064 29.842 1.93934 29.5607C1.65804 29.2794 1.5 28.8978 1.5 28.5V7.5C1.5 7.10218 1.65804 6.72064 1.93934 6.43934C2.22064 6.15804 2.60218 6 3 6H24ZM11.1 13.2435C10.9617 13.2435 10.8276 13.2912 10.7205 13.3787C10.6133 13.4662 10.5397 13.588 10.512 13.7235L10.5 13.842V22.155C10.5 22.2522 10.5236 22.3479 10.5687 22.4339C10.6139 22.52 10.6793 22.5937 10.7592 22.6489C10.8392 22.7041 10.9314 22.739 11.0278 22.7507C11.1243 22.7624 11.2222 22.7505 11.313 22.716L11.4225 22.662L17.955 18.5055C18.0315 18.4568 18.0959 18.3913 18.1435 18.3141C18.191 18.2369 18.2205 18.1499 18.2296 18.0597C18.2387 17.9694 18.2272 17.8783 18.196 17.7932C18.1648 17.708 18.1147 17.631 18.0495 17.568L17.955 17.493L11.4225 13.335C11.3257 13.275 11.2139 13.2423 11.1 13.2435Z" fill="black" fill-opacity="0.2"/>
<path d="M24 6C24.3978 6 24.7794 6.15804 25.0607 6.43934C25.342 6.72064 25.5 7.10218 25.5 7.5V13.8L33.3195 8.325C33.4319 8.24618 33.5639 8.19975 33.7009 8.19075C33.8379 8.18176 33.9747 8.21055 34.0965 8.27399C34.2183 8.33743 34.3203 8.43309 34.3915 8.55053C34.4626 8.66797 34.5002 8.80269 34.5 8.94V27.06C34.5002 27.1973 34.4626 27.332 34.3915 27.4495C34.3203 27.5669 34.2183 27.6626 34.0965 27.726C33.9747 27.7894 33.8379 27.8182 33.7009 27.8092C33.5639 27.8003 33.4319 27.7538 33.3195 27.675L25.5 22.2V28.5C25.5 28.8978 25.342 29.2794 25.0607 29.5607C24.7794 29.842 24.3978 30 24 30H3C2.60218 30 2.22064 29.842 1.93934 29.5607C1.65804 29.2794 1.5 28.8978 1.5 28.5V7.5C1.5 7.10218 1.65804 6.72064 1.93934 6.43934C2.22064 6.15804 2.60218 6 3 6H24ZM11.1 13.2435C10.9617 13.2435 10.8276 13.2912 10.7205 13.3787C10.6133 13.4662 10.5397 13.588 10.512 13.7235L10.5 13.842V22.155C10.5 22.2522 10.5236 22.3479 10.5687 22.4339C10.6139 22.52 10.6793 22.5937 10.7592 22.6489C10.8392 22.7041 10.9314 22.739 11.0278 22.7507C11.1243 22.7624 11.2222 22.7505 11.313 22.716L11.4225 22.662L17.955 18.5055C18.0315 18.4568 18.0959 18.3913 18.1435 18.3141C18.191 18.2369 18.2205 18.1499 18.2296 18.0597C18.2387 17.9694 18.2272 17.8783 18.196 17.7932C18.1648 17.708 18.1147 17.631 18.0495 17.568L17.955 17.493L11.4225 13.335C11.3257 13.275 11.2139 13.2423 11.1 13.2435Z" fill="black" fill-opacity="0.2"/>
<defs>
<linearGradient id="paint0_linear_700_475" x1="1.5" y1="18" x2="34.5" y2="18" gradientUnits="userSpaceOnUse">
<stop stop-color="#A03D8C"/>
<stop offset="1" stop-color="#4C2CCA"/>
</linearGradient>
</defs>
</svg>
