<svg width="28" height="23" viewBox="0 0 28 23" fill="none" xmlns="http://www.w3.org/2000/svg">
<path d="M10.666 0.833008C5.14602 0.833008 0.666016 4.41967 0.666016 8.83301C0.666016 11.353 2.10602 13.5797 4.37268 15.0463L3.33268 18.1663L6.66602 16.1663C7.85268 16.5797 9.15935 16.833 10.546 16.833C10.1894 15.989 10.0036 15.0826 9.99935 14.1663C9.99935 9.75301 14.1727 6.16634 19.3327 6.16634C19.586 6.16634 19.8393 6.16634 20.0793 6.20634C18.7193 3.08634 15.0393 0.833008 10.666 0.833008ZM6.66602 4.16634C7.01964 4.16634 7.35878 4.30682 7.60882 4.55687C7.85887 4.80691 7.99935 5.14605 7.99935 5.49967C7.99935 5.8533 7.85887 6.19243 7.60882 6.44248C7.35878 6.69253 7.01964 6.83301 6.66602 6.83301C6.31239 6.83301 5.97326 6.69253 5.72321 6.44248C5.47316 6.19243 5.33268 5.8533 5.33268 5.49967C5.33268 5.14605 5.47316 4.80691 5.72321 4.55687C5.97326 4.30682 6.31239 4.16634 6.66602 4.16634ZM13.3327 4.16634C13.6863 4.16634 14.0254 4.30682 14.2755 4.55687C14.5255 4.80691 14.666 5.14605 14.666 5.49967C14.666 5.8533 14.5255 6.19243 14.2755 6.44248C14.0254 6.69253 13.6863 6.83301 13.3327 6.83301C12.9791 6.83301 12.6399 6.69253 12.3899 6.44248C12.1398 6.19243 11.9993 5.8533 11.9993 5.49967C11.9993 5.14605 12.1398 4.80691 12.3899 4.55687C12.6399 4.30682 12.9791 4.16634 13.3327 4.16634ZM19.3327 7.49967C14.9193 7.49967 11.3327 10.4863 11.3327 14.1663C11.3327 17.8463 14.9193 20.833 19.3327 20.833C20.226 20.833 21.0793 20.7263 21.8793 20.4997L24.666 22.1663L23.8393 19.673C25.9327 18.4597 27.3327 16.4463 27.3327 14.1663C27.3327 10.4863 23.746 7.49967 19.3327 7.49967ZM16.666 10.833C17.0196 10.833 17.3588 10.9735 17.6088 11.2235C17.8589 11.4736 17.9993 11.8127 17.9993 12.1663C17.9993 12.52 17.8589 12.8591 17.6088 13.1091C17.3588 13.3592 17.0196 13.4997 16.666 13.4997C16.3124 13.4997 15.9733 13.3592 15.7232 13.1091C15.4732 12.8591 15.3327 12.52 15.3327 12.1663C15.3327 11.8127 15.4732 11.4736 15.7232 11.2235C15.9733 10.9735 16.3124 10.833 16.666 10.833ZM21.9993 10.833C22.353 10.833 22.6921 10.9735 22.9422 11.2235C23.1922 11.4736 23.3327 11.8127 23.3327 12.1663C23.3327 12.52 23.1922 12.8591 22.9422 13.1091C22.6921 13.3592 22.353 13.4997 21.9993 13.4997C21.6457 13.4997 21.3066 13.3592 21.0565 13.1091C20.8065 12.8591 20.666 12.52 20.666 12.1663C20.666 11.8127 20.8065 11.4736 21.0565 11.2235C21.3066 10.9735 21.6457 10.833 21.9993 10.833Z" fill="white"/>
</svg>
