<svg width="19" height="22" viewBox="0 0 19 22" fill="none" xmlns="http://www.w3.org/2000/svg">
<path d="M12.7143 17.5414V18.9042C12.7143 19.3558 12.3545 19.7219 11.9107 19.7219H2.80357C2.35977 19.7219 2 19.3558 2 18.9042V6.36666C2 5.91507 2.35977 5.54899 2.80357 5.54899H5.21429V15.6336C5.21429 16.6856 6.05539 17.5414 7.08929 17.5414H12.7143ZM12.7143 5.82154V2.27832H7.08929C6.64548 2.27832 6.28571 2.6444 6.28571 3.09599V15.6336C6.28571 16.0851 6.64548 16.4512 7.08929 16.4512H16.1964C16.6402 16.4512 17 16.0851 17 15.6336V6.63921H13.5179C13.0759 6.63921 12.7143 6.27126 12.7143 5.82154ZM16.7647 4.7644L14.5568 2.51779C14.4061 2.36446 14.2017 2.27832 13.9886 2.27832H13.7857V5.54899H17V5.34256C17 5.12571 16.9153 4.91774 16.7647 4.7644Z" fill="#6F6F6F"/>
</svg>
