<svg width="24" height="24" viewBox="0 0 24 24" fill="none" xmlns="http://www.w3.org/2000/svg">
<path d="M10.808 14C10.576 14 10.3833 13.9233 10.23 13.77C10.0767 13.6166 10 13.424 10 13.192V12.056C10 11.8406 10.0433 11.6313 10.13 11.428C10.218 11.2246 10.3343 11.0506 10.479 10.906L18.944 2.44096C19.0547 2.3303 19.1707 2.25363 19.292 2.21096C19.4133 2.1683 19.5417 2.1473 19.677 2.14796C19.803 2.14796 19.9257 2.1693 20.045 2.21196C20.1643 2.25463 20.273 2.32463 20.371 2.42196L21.483 3.49996C21.5897 3.61063 21.6703 3.7323 21.725 3.86496C21.7797 3.99763 21.8073 4.13096 21.808 4.26496C21.8087 4.39896 21.7883 4.5263 21.747 4.64696C21.707 4.76696 21.6317 4.88196 21.521 4.99196L12.998 13.516C12.8533 13.6606 12.6793 13.7773 12.476 13.866C12.2727 13.9553 12.0633 14 11.848 14H10.808ZM19.466 5.64596L20.813 4.28496L19.702 3.11496L18.315 4.49596L19.466 5.64596ZM5.615 20C5.15433 20 4.77 19.846 4.462 19.538C4.154 19.23 4 18.8453 4 18.384V5.61596C4 5.1553 4.15433 4.77096 4.463 4.46296C4.77167 4.15496 5.156 4.00063 5.616 3.99996H12.058C12.24 3.99996 12.3933 4.04863 12.518 4.14596C12.642 4.2433 12.733 4.36463 12.791 4.50996C12.8483 4.65463 12.8677 4.80263 12.849 4.95396C12.8303 5.1053 12.757 5.24496 12.629 5.37296L8.094 9.90796C7.94933 10.0526 7.83333 10.2266 7.746 10.43C7.65867 10.6333 7.61533 10.8426 7.616 11.058V14.769C7.616 15.217 7.77333 15.5983 8.088 15.913C8.40267 16.2276 8.78367 16.385 9.231 16.385H12.841C13.0563 16.385 13.2653 16.3413 13.468 16.254C13.6707 16.1666 13.845 16.0506 13.991 15.906L18.627 11.269C18.755 11.141 18.895 11.0676 19.047 11.049C19.1977 11.0303 19.3457 11.05 19.491 11.108C19.6357 11.1653 19.7567 11.2563 19.854 11.381C19.9513 11.505 20 11.6583 20 11.841V18.385C20 18.845 19.846 19.2293 19.538 19.538C19.23 19.8466 18.8453 20.0006 18.384 20H5.615Z" fill="#6F6F6F"/>
</svg>
