<svg width="24" height="24" viewBox="0 0 24 24" fill="none" xmlns="http://www.w3.org/2000/svg">
<path fill-rule="evenodd" clip-rule="evenodd" d="M18 8C18.5304 8 19.0391 8.21071 19.4142 8.58579C19.7893 8.96086 20 9.46957 20 10V20C20 20.5304 19.7893 21.0391 19.4142 21.4142C19.0391 21.7893 18.5304 22 18 22H6C5.46957 22 4.96086 21.7893 4.58579 21.4142C4.21071 21.0391 4 20.5304 4 20V10C4 9.46957 4.21071 8.96086 4.58579 8.58579C4.96086 8.21071 5.46957 8 6 8H7V6C7 4.67392 7.52678 3.40215 8.46447 2.46447C9.40215 1.52678 10.6739 1 12 1C12.6566 1 13.3068 1.12933 13.9134 1.3806C14.52 1.63188 15.0712 2.00017 15.5355 2.46447C15.9998 2.92876 16.3681 3.47995 16.6194 4.08658C16.8707 4.69321 17 5.34339 17 6V8H18ZM12 3C11.2044 3 10.4413 3.31607 9.87868 3.87868C9.31607 4.44129 9 5.20435 9 6V8H15V6C15 5.20435 14.6839 4.44129 14.1213 3.87868C13.5587 3.31607 12.7956 3 12 3ZM15 13.25H14C14 12.5205 13.165 12.1695 12.5 12.05V14.5355C13.6225 14.6845 15 15.3315 15 16.75C15 18.1685 13.6225 18.816 12.5 18.965V20H11.5V18.968C10.2125 18.8095 9 18.0445 9 16.75H10C10 17.438 10.776 17.8245 11.5 17.95V15.465C10.333 15.3065 9 14.603 9 13.25C9 11.8315 10.3775 11.1845 11.5 11.0355V10H12.5V11.0355C13.6225 11.1845 15 11.8315 15 13.25ZM11.5 12.05C10.835 12.1695 10 12.5205 10 13.25C10 13.9485 10.8145 14.323 11.5 14.4495V12.05ZM12.5 17.95C13.165 17.8305 14 17.4795 14 16.75C14 16.0205 13.165 15.6695 12.5 15.55V17.95Z" fill="url(#paint0_linear_752_1866)"/>
<path fill-rule="evenodd" clip-rule="evenodd" d="M18 8C18.5304 8 19.0391 8.21071 19.4142 8.58579C19.7893 8.96086 20 9.46957 20 10V20C20 20.5304 19.7893 21.0391 19.4142 21.4142C19.0391 21.7893 18.5304 22 18 22H6C5.46957 22 4.96086 21.7893 4.58579 21.4142C4.21071 21.0391 4 20.5304 4 20V10C4 9.46957 4.21071 8.96086 4.58579 8.58579C4.96086 8.21071 5.46957 8 6 8H7V6C7 4.67392 7.52678 3.40215 8.46447 2.46447C9.40215 1.52678 10.6739 1 12 1C12.6566 1 13.3068 1.12933 13.9134 1.3806C14.52 1.63188 15.0712 2.00017 15.5355 2.46447C15.9998 2.92876 16.3681 3.47995 16.6194 4.08658C16.8707 4.69321 17 5.34339 17 6V8H18ZM12 3C11.2044 3 10.4413 3.31607 9.87868 3.87868C9.31607 4.44129 9 5.20435 9 6V8H15V6C15 5.20435 14.6839 4.44129 14.1213 3.87868C13.5587 3.31607 12.7956 3 12 3ZM15 13.25H14C14 12.5205 13.165 12.1695 12.5 12.05V14.5355C13.6225 14.6845 15 15.3315 15 16.75C15 18.1685 13.6225 18.816 12.5 18.965V20H11.5V18.968C10.2125 18.8095 9 18.0445 9 16.75H10C10 17.438 10.776 17.8245 11.5 17.95V15.465C10.333 15.3065 9 14.603 9 13.25C9 11.8315 10.3775 11.1845 11.5 11.0355V10H12.5V11.0355C13.6225 11.1845 15 11.8315 15 13.25ZM11.5 12.05C10.835 12.1695 10 12.5205 10 13.25C10 13.9485 10.8145 14.323 11.5 14.4495V12.05ZM12.5 17.95C13.165 17.8305 14 17.4795 14 16.75C14 16.0205 13.165 15.6695 12.5 15.55V17.95Z" fill="black" fill-opacity="0.2"/>
<path fill-rule="evenodd" clip-rule="evenodd" d="M18 8C18.5304 8 19.0391 8.21071 19.4142 8.58579C19.7893 8.96086 20 9.46957 20 10V20C20 20.5304 19.7893 21.0391 19.4142 21.4142C19.0391 21.7893 18.5304 22 18 22H6C5.46957 22 4.96086 21.7893 4.58579 21.4142C4.21071 21.0391 4 20.5304 4 20V10C4 9.46957 4.21071 8.96086 4.58579 8.58579C4.96086 8.21071 5.46957 8 6 8H7V6C7 4.67392 7.52678 3.40215 8.46447 2.46447C9.40215 1.52678 10.6739 1 12 1C12.6566 1 13.3068 1.12933 13.9134 1.3806C14.52 1.63188 15.0712 2.00017 15.5355 2.46447C15.9998 2.92876 16.3681 3.47995 16.6194 4.08658C16.8707 4.69321 17 5.34339 17 6V8H18ZM12 3C11.2044 3 10.4413 3.31607 9.87868 3.87868C9.31607 4.44129 9 5.20435 9 6V8H15V6C15 5.20435 14.6839 4.44129 14.1213 3.87868C13.5587 3.31607 12.7956 3 12 3ZM15 13.25H14C14 12.5205 13.165 12.1695 12.5 12.05V14.5355C13.6225 14.6845 15 15.3315 15 16.75C15 18.1685 13.6225 18.816 12.5 18.965V20H11.5V18.968C10.2125 18.8095 9 18.0445 9 16.75H10C10 17.438 10.776 17.8245 11.5 17.95V15.465C10.333 15.3065 9 14.603 9 13.25C9 11.8315 10.3775 11.1845 11.5 11.0355V10H12.5V11.0355C13.6225 11.1845 15 11.8315 15 13.25ZM11.5 12.05C10.835 12.1695 10 12.5205 10 13.25C10 13.9485 10.8145 14.323 11.5 14.4495V12.05ZM12.5 17.95C13.165 17.8305 14 17.4795 14 16.75C14 16.0205 13.165 15.6695 12.5 15.55V17.95Z" fill="black" fill-opacity="0.2"/>
<defs>
<linearGradient id="paint0_linear_752_1866" x1="4" y1="11.5" x2="20" y2="11.5" gradientUnits="userSpaceOnUse">
<stop stop-color="#A03D8C"/>
<stop offset="1" stop-color="#4C2CCA"/>
</linearGradient>
</defs>
</svg>
