<svg width="38" height="34" viewBox="0 0 38 34" fill="none" xmlns="http://www.w3.org/2000/svg">
<path fill-rule="evenodd" clip-rule="evenodd" d="M11.4931 11.6956C8.86488 11.6956 6.3443 12.6297 4.48587 14.2925C2.62743 15.9553 1.58337 18.2106 1.58337 20.5622C1.58337 22.9137 2.62743 25.169 4.48587 26.8318C6.3443 28.4946 8.86488 29.4288 11.4931 29.4288H22.5215C23.0396 29.4288 23.5535 29.3925 24.059 29.3214C23.7577 29.13 23.5041 28.8848 23.3064 28.5943L23.2964 28.5795L22.504 27.3425C22.159 26.8259 22.0522 26.236 22.2048 25.6442C22.2347 25.5283 22.273 25.4159 22.3195 25.3074C22.0334 25.4253 21.7195 25.4881 21.3984 25.4881C20.8144 25.4881 20.2543 25.2805 19.8413 24.9109C19.4283 24.5414 19.1963 24.0403 19.1963 23.5177C19.1963 22.9951 19.4283 22.494 19.8413 22.1244C20.2543 21.7549 20.8144 21.5473 21.3984 21.5473C21.6973 21.5473 21.9899 21.6017 22.2598 21.7043C22.3197 21.5394 22.4013 21.3792 22.504 21.2254L23.2964 19.9884L23.3064 19.9736C23.4042 19.8298 23.5157 19.6972 23.6399 19.5767C23.6268 19.5769 23.6137 19.577 23.6006 19.577C23.0166 19.577 22.4564 19.3694 22.0434 18.9999C21.6305 18.6304 21.3984 18.1292 21.3984 17.6066C21.3984 17.0841 21.6305 16.5829 22.0434 16.2134C22.4564 15.8439 23.0166 15.6363 23.6006 15.6363C24.1847 15.6363 24.7448 15.8439 25.1578 16.2134C25.5708 16.5829 25.8028 17.0841 25.8028 17.6066C25.8028 18.0451 25.6394 18.4685 25.3429 18.8117C25.7679 18.7735 26.1924 18.8326 26.5943 18.9818C26.6929 18.43 26.9863 17.9455 27.4431 17.5687C27.9377 17.1606 28.5553 16.9498 29.2202 16.9498H30.8015C31.0878 16.9498 31.3655 16.9889 31.6284 17.0659C31.1365 16.0402 30.428 15.097 29.5288 14.2925C27.6703 12.6297 25.1498 11.6956 22.5215 11.6956H11.4931ZM27.4795 28.1973C27.4927 28.2045 27.506 28.2116 27.5194 28.2186C27.506 28.2116 27.4927 28.2045 27.4795 28.1973ZM7.09319 20.5622C7.09319 20.3009 7.20919 20.0503 7.41569 19.8655C7.62218 19.6808 7.90224 19.577 8.19427 19.577H10.3964V17.6066C10.3964 17.3453 10.5124 17.0948 10.7189 16.91C10.9254 16.7252 11.2055 16.6214 11.4975 16.6214C11.7895 16.6214 12.0696 16.7252 12.2761 16.91C12.4826 17.0948 12.5986 17.3453 12.5986 17.6066V19.577H14.8008C15.0928 19.577 15.3728 19.6808 15.5793 19.8655C15.7858 20.0503 15.9018 20.3009 15.9018 20.5622C15.9018 20.8234 15.7858 21.074 15.5793 21.2588C15.3728 21.4435 15.0928 21.5473 14.8008 21.5473H12.5986V23.5177C12.5986 23.779 12.4826 24.0296 12.2761 24.2143C12.0696 24.3991 11.7895 24.5029 11.4975 24.5029C11.2055 24.5029 10.9254 24.3991 10.7189 24.2143C10.5124 24.0296 10.3964 23.779 10.3964 23.5177V21.5473H8.19427C7.90224 21.5473 7.62218 21.4435 7.41569 21.2588C7.20919 21.074 7.09319 20.8234 7.09319 20.5622ZM30.6718 24.8452C30.4874 25.0102 30.3057 25.0776 30.0445 25.0776C29.7649 25.0776 29.5865 25.0059 29.4158 24.8511C29.2348 24.6872 29.1577 24.5224 29.1575 24.283C29.1573 24.0447 29.2339 23.8808 29.4146 23.7172C29.586 23.562 29.7648 23.4903 30.0445 23.4903C30.3057 23.4903 30.4874 23.5577 30.6718 23.7227C30.8562 23.8877 30.9315 24.0502 30.9315 24.2839C30.9315 24.5177 30.8562 24.6802 30.6718 24.8452Z" fill="url(#paint0_linear_641_3105)"/>
<path d="M29.2202 30.3045C28.9174 30.3045 28.6568 30.2142 28.4383 30.0336C28.2198 29.853 28.088 29.6322 28.0426 29.3713L27.8912 28.3779C27.7455 28.3278 27.6082 28.2675 27.4794 28.1973C27.3507 28.1271 27.2244 28.0518 27.1006 27.9715L26.0576 28.3629C25.7773 28.4733 25.4969 28.4833 25.2165 28.393C24.9362 28.3027 24.7175 28.1421 24.5605 27.9113L23.7698 26.6771C23.6128 26.4463 23.568 26.2005 23.6353 25.9396C23.7025 25.6787 23.8539 25.463 24.0895 25.2924L24.981 24.6903C24.9698 24.6201 24.9642 24.5523 24.9642 24.4869V24.0805C24.9642 24.0154 24.9698 23.9478 24.981 23.8776L24.0895 23.2755C23.8539 23.1049 23.7025 22.8892 23.6353 22.6283C23.568 22.3674 23.6128 22.1216 23.7698 21.8908L24.5605 20.6566C24.7175 20.4258 24.9362 20.2653 25.2165 20.1749C25.4969 20.0846 25.7773 20.0947 26.0576 20.205L27.1006 20.5964C27.224 20.5161 27.3529 20.4409 27.4875 20.3706C27.6221 20.3004 27.7567 20.2402 27.8912 20.19L28.0426 19.1966C28.0875 18.9357 28.2194 18.715 28.4383 18.5344C28.6572 18.3537 28.9178 18.2634 29.2202 18.2634H30.8015C31.1043 18.2634 31.3651 18.3537 31.584 18.5344C31.8029 18.715 31.9346 18.9357 31.979 19.1966L32.1304 20.19C32.2762 20.2402 32.4137 20.3004 32.5429 20.3706C32.6721 20.4409 32.7981 20.5161 32.9211 20.5964L33.964 20.205C34.2444 20.0947 34.5248 20.0846 34.8051 20.1749C35.0855 20.2653 35.3042 20.4258 35.4612 20.6566L36.2518 21.8908C36.4088 22.1216 36.4537 22.3674 36.3864 22.6283C36.3191 22.8892 36.1677 23.1049 35.9322 23.2755L35.0406 23.8776C35.0518 23.9478 35.0575 24.0156 35.0575 24.0811V24.4869C35.0575 24.5523 35.0462 24.6201 35.0238 24.6903L35.9154 25.2924C36.1509 25.463 36.3023 25.6787 36.3696 25.9396C36.4369 26.2005 36.392 26.4463 36.235 26.6771L35.4275 27.9113C35.2705 28.1421 35.0518 28.3027 34.7715 28.393C34.4911 28.4833 34.2107 28.4733 33.9304 28.3629L32.9211 27.9715C32.7977 28.0518 32.6687 28.1271 32.5341 28.1973C32.3996 28.2675 32.265 28.3278 32.1304 28.3779L31.979 29.3713C31.9342 29.6322 31.8025 29.853 31.584 30.0336C31.3656 30.2142 31.1047 30.3045 30.8015 30.3045H29.2202ZM30.0445 26.3911C30.6949 26.3911 31.2501 26.1854 31.7099 25.774C32.1697 25.3626 32.3996 24.8659 32.3996 24.284C32.3996 23.702 32.1697 23.2053 31.7099 22.7939C31.2501 22.3825 30.6949 22.1768 30.0445 22.1768C29.3828 22.1768 28.8248 22.3825 28.3703 22.7939C27.9159 23.2053 27.6889 23.702 27.6894 24.284C27.6898 24.8659 27.917 25.3626 28.371 25.774C28.825 26.1854 29.3828 26.3911 30.0445 26.3911Z" fill="url(#paint1_linear_641_3105)"/>
<defs>
<linearGradient id="paint0_linear_641_3105" x1="1.58337" y1="20.5622" x2="31.6284" y2="20.5622" gradientUnits="userSpaceOnUse">
<stop stop-color="#A03D8C"/>
<stop offset="1" stop-color="#4C2CCA"/>
</linearGradient>
<linearGradient id="paint1_linear_641_3105" x1="23.605" y1="24.284" x2="36.4167" y2="24.284" gradientUnits="userSpaceOnUse">
<stop stop-color="#A03D8C"/>
<stop offset="1" stop-color="#4C2CCA"/>
</linearGradient>
</defs>
</svg>
